<svg width="168" height="54" viewBox="0 0 168 54" fill="none" xmlns="http://www.w3.org/2000/svg">
<path d="M22.7925 38.51V44H3.42V11.3525H10.17V38.51H22.7925ZM44.1657 31.6025L40.6332 21.6125C40.4232 21.0875 40.1982 20.4725 39.9582 19.7675C39.7332 19.0625 39.5157 18.2975 39.3057 17.4725C39.0957 18.3125 38.8707 19.0925 38.6307 19.8125C38.4057 20.5175 38.1882 21.1325 37.9782 21.6575L34.4682 31.6025H44.1657ZM55.5057 44H50.2632C49.6782 44 49.1982 43.865 48.8232 43.595C48.4632 43.31 48.1932 42.95 48.0132 42.515L45.8082 36.2825H32.8032L30.5982 42.515C30.4482 42.89 30.1857 43.235 29.8107 43.55C29.4357 43.85 28.9632 44 28.3932 44H23.1057L35.8632 11.3525H42.7707L55.5057 44ZM68.7424 26.81C69.8374 26.81 70.7824 26.675 71.5774 26.405C72.3724 26.12 73.0249 25.7375 73.5349 25.2575C74.0449 24.7625 74.4199 24.185 74.6599 23.525C74.8999 22.865 75.0199 22.145 75.0199 21.365C75.0199 19.82 74.5024 18.62 73.4674 17.765C72.4474 16.91 70.8874 16.4825 68.7874 16.4825H65.2774V26.81H68.7424ZM84.5599 44H78.4624C77.3224 44 76.4974 43.565 75.9874 42.695L69.7774 32.6825C69.5224 32.2925 69.2374 32.0075 68.9224 31.8275C68.6224 31.6475 68.1724 31.5575 67.5724 31.5575H65.2774V44H58.5274V11.3525H68.7874C71.0674 11.3525 73.0174 11.5925 74.6374 12.0725C76.2574 12.5375 77.5849 13.19 78.6199 14.03C79.6549 14.87 80.4124 15.875 80.8924 17.045C81.3724 18.2 81.6124 19.475 81.6124 20.87C81.6124 21.95 81.4549 22.9775 81.1399 23.9525C80.8399 24.9125 80.3974 25.79 79.8124 26.585C79.2274 27.38 78.5074 28.085 77.6524 28.7C76.7974 29.315 75.8224 29.81 74.7274 30.185C75.1624 30.425 75.5674 30.7175 75.9424 31.0625C76.3174 31.3925 76.6549 31.79 76.9549 32.255L84.5599 44ZM103.109 27.3725H114.314V40.85C112.649 42.065 110.871 42.9575 108.981 43.5275C107.106 44.0825 105.119 44.36 103.019 44.36C100.334 44.36 97.9037 43.9475 95.7287 43.1225C93.5537 42.2825 91.6937 41.12 90.1487 39.635C88.6037 38.15 87.4112 36.3875 86.5712 34.3475C85.7312 32.3075 85.3112 30.08 85.3112 27.665C85.3112 25.22 85.7087 22.9775 86.5037 20.9375C87.3137 18.8975 88.4612 17.1425 89.9462 15.6725C91.4312 14.2025 93.2237 13.055 95.3237 12.23C97.4387 11.405 99.8012 10.9925 102.411 10.9925C103.761 10.9925 105.021 11.105 106.191 11.33C107.361 11.54 108.441 11.84 109.431 12.23C110.421 12.605 111.329 13.055 112.154 13.58C112.979 14.105 113.729 14.6825 114.404 15.3125L112.446 18.3275C112.146 18.8075 111.756 19.1 111.276 19.205C110.796 19.31 110.271 19.19 109.701 18.845C109.161 18.515 108.629 18.2225 108.104 17.9675C107.594 17.6975 107.046 17.465 106.461 17.27C105.876 17.075 105.239 16.925 104.549 16.82C103.859 16.715 103.064 16.6625 102.164 16.6625C100.649 16.6625 99.2762 16.925 98.0462 17.45C96.8162 17.975 95.7662 18.7175 94.8962 19.6775C94.0412 20.6375 93.3812 21.7925 92.9162 23.1425C92.4512 24.4925 92.2187 26 92.2187 27.665C92.2187 29.465 92.4737 31.0775 92.9837 32.5025C93.4937 33.9125 94.2137 35.105 95.1437 36.08C96.0737 37.055 97.1837 37.7975 98.4737 38.3075C99.7787 38.8175 101.226 39.0725 102.816 39.0725C103.896 39.0725 104.856 38.9675 105.696 38.7575C106.551 38.5325 107.384 38.2325 108.194 37.8575V32.3675H104.504C104.069 32.3675 103.724 32.255 103.469 32.03C103.229 31.79 103.109 31.49 103.109 31.13V27.3725ZM126.626 16.64V25.0325H137.516V30.14H126.626V38.7125H140.621V44H119.831V11.3525H140.621V16.64H126.626Z" fill="#FAF7EE"/>
<path d="M155.5 14.5L157.886 24.6135L168 27L157.886 29.3865L155.5 39.5L153.114 29.3865L143 27L153.114 24.6135L155.5 14.5Z" fill="#FAF7EE"/>
</svg>
