<svg width="873" height="374" viewBox="0 0 873 374" fill="none" xmlns="http://www.w3.org/2000/svg">
<circle cx="406.234" cy="254.631" r="118.723" fill="#FC813B"/>
<rect x="614.384" y="135.908" width="237.446" height="237.446" fill="#FDC21E"/>
<rect x="0.725098" y="291.872" width="294.032" height="92.0364" rx="30.8371" transform="rotate(-29.0809 0.725098 291.872)" fill="#664ADD"/>
<path d="M82.2783 309.372C82.8931 309.019 83.3672 308.649 83.7006 308.262C84.0341 307.875 84.2532 307.488 84.3581 307.101C84.4712 306.709 84.487 306.319 84.4055 305.93C84.3322 305.536 84.1897 305.155 83.9782 304.786C83.7572 304.4 83.4982 304.091 83.2013 303.859C82.8997 303.618 82.5566 303.466 82.1721 303.403C81.7828 303.332 81.3462 303.359 80.8623 303.484C80.3866 303.605 79.8578 303.832 79.2758 304.166L75.9435 306.077L78.9337 311.29L82.2783 309.372ZM71.6839 298.65L74.6318 303.79L77.2631 302.28C78.3944 301.632 79.1294 300.938 79.4681 300.199C79.8151 299.455 79.7323 298.636 79.2198 297.743C78.6885 296.817 78.0478 296.307 77.2974 296.215C76.5471 296.122 75.6146 296.395 74.4997 297.035L71.6839 298.65ZM73.0328 294.477C74.1968 293.81 75.2563 293.349 76.2112 293.096C77.1661 292.842 78.0234 292.77 78.7831 292.879C79.551 292.983 80.2248 293.256 80.8045 293.697C81.3843 294.138 81.8834 294.723 82.3018 295.452C82.5416 295.87 82.7105 296.307 82.8085 296.763C82.9018 297.211 82.9137 297.678 82.8441 298.164C82.7781 298.638 82.6218 299.125 82.3753 299.626C82.1369 300.122 81.7972 300.622 81.3561 301.126C84.114 300.274 86.0923 300.893 87.2912 302.984C87.7238 303.738 87.98 304.517 88.0598 305.321C88.1396 306.125 88.0389 306.918 87.7576 307.7C87.4717 308.474 87.0023 309.223 86.3494 309.946C85.6965 310.669 84.8536 311.327 83.8207 311.919L77.107 315.77L66.9093 297.989L73.0328 294.477ZM96.3238 294.437C96.0981 294.043 95.8292 293.707 95.5169 293.429C95.2082 293.138 94.868 292.924 94.4962 292.789C94.1244 292.653 93.724 292.611 93.2951 292.661C92.8697 292.698 92.4316 292.845 91.9807 293.104C91.1036 293.607 90.5543 294.254 90.3328 295.046C90.1196 295.833 90.2066 296.725 90.5938 297.723L96.3238 294.437ZM91.5831 299.591C92.0037 300.21 92.4406 300.706 92.8936 301.078C93.3419 301.442 93.803 301.695 94.2767 301.837C94.7458 301.971 95.2258 302.001 95.7168 301.926C96.2113 301.838 96.7045 301.654 97.1964 301.371C97.6882 301.089 98.0775 300.79 98.3641 300.473C98.659 300.151 98.8976 299.846 99.08 299.556C99.2706 299.261 99.4314 299 99.5623 298.773C99.7014 298.54 99.8652 298.37 100.054 298.262C100.308 298.116 100.55 298.102 100.782 298.22L102.289 298.826C102.179 299.413 101.992 299.961 101.729 300.471C101.462 300.973 101.145 301.438 100.78 301.865C100.419 302.279 100.019 302.656 99.5813 302.994C99.1517 303.328 98.7155 303.621 98.2728 303.875C97.3957 304.378 96.4978 304.703 95.5791 304.848C94.6557 304.986 93.753 304.931 92.8712 304.686C91.9847 304.431 91.1418 303.978 90.3425 303.325C89.5385 302.664 88.8192 301.78 88.1845 300.674C87.6908 299.813 87.3671 298.926 87.2133 298.012C87.0547 297.089 87.0738 296.202 87.2705 295.348C87.4708 294.481 87.8498 293.67 88.4077 292.915C88.9738 292.154 89.7282 291.503 90.6709 290.963C91.4661 290.507 92.2726 290.213 93.0906 290.082C93.9085 289.95 94.7004 289.992 95.4661 290.206C96.2271 290.412 96.9474 290.795 97.627 291.353C98.31 291.898 98.9125 292.625 99.4344 293.535C99.6977 293.994 99.8271 294.334 99.8228 294.554C99.8138 294.766 99.6699 294.952 99.3912 295.112L91.5831 299.591ZM102.667 287.252C102.628 286.273 102.757 285.414 103.054 284.678C103.345 283.933 103.86 283.349 104.598 282.926C105.18 282.592 105.72 282.451 106.218 282.503L107.326 284.891C107.37 285.062 107.37 285.204 107.325 285.316C107.284 285.416 107.198 285.503 107.067 285.579C106.944 285.649 106.748 285.735 106.479 285.835C106.217 285.93 105.972 286.043 105.743 286.175C105.406 286.368 105.135 286.589 104.93 286.837C104.724 287.086 104.568 287.366 104.463 287.677C104.362 287.975 104.304 288.302 104.291 288.658C104.285 289.01 104.309 289.394 104.363 289.81L108.82 297.581L105.783 299.323L98.5471 286.707L100.33 285.684C100.642 285.506 100.892 285.439 101.08 285.483C101.265 285.519 101.459 285.669 101.665 285.932L102.667 287.252ZM107.514 274.047L113.516 284.511L114.081 284.187C114.286 284.069 114.432 283.953 114.519 283.838C114.609 283.71 114.668 283.529 114.697 283.294L115.611 277.623C115.644 277.375 115.712 277.162 115.816 276.982C115.928 276.798 116.111 276.633 116.365 276.487L119.144 274.894L117.909 281.828C117.842 282.357 117.7 282.814 117.485 283.198C117.728 283.223 117.962 283.279 118.187 283.368C118.421 283.452 118.653 283.553 118.884 283.671L126.601 287.383L123.859 288.955C123.622 289.092 123.395 289.172 123.181 289.197C122.962 289.214 122.736 289.153 122.504 289.014L116.539 286.078C116.316 285.955 116.127 285.901 115.971 285.914C115.815 285.927 115.614 286.004 115.368 286.145L114.679 286.54L117.994 292.319L114.957 294.061L104.477 275.789L107.514 274.047ZM125.679 270.884C126.614 270.348 127.549 270.013 128.485 269.879C129.43 269.741 130.332 269.795 131.193 270.042C132.062 270.284 132.874 270.723 133.63 271.357C134.386 271.991 135.049 272.804 135.617 273.796C136.191 274.796 136.561 275.782 136.726 276.755C136.892 277.727 136.862 278.654 136.638 279.535C136.421 280.411 136.014 281.221 135.418 281.966C134.829 282.707 134.068 283.345 133.133 283.881C132.191 284.422 131.247 284.762 130.303 284.9C129.358 285.039 128.449 284.983 127.575 284.732C126.71 284.477 125.895 284.035 125.131 283.405C124.375 282.771 123.71 281.954 123.137 280.954C122.568 279.962 122.201 278.98 122.035 278.007C121.878 277.03 121.91 276.107 122.131 275.24C122.36 274.367 122.773 273.558 123.37 272.813C123.967 272.068 124.736 271.425 125.679 270.884ZM131.793 281.545C132.843 280.943 133.415 280.146 133.511 279.155C133.615 278.158 133.276 276.979 132.496 275.619C131.716 274.258 130.867 273.367 129.949 272.945C129.04 272.519 128.061 272.606 127.012 273.208C125.946 273.819 125.362 274.634 125.259 275.651C125.16 276.656 125.498 277.835 126.274 279.187C127.05 280.54 127.896 281.427 128.814 281.849C129.735 282.257 130.728 282.156 131.793 281.545ZM138.06 266.104C138.168 265.704 138.301 265.317 138.457 264.944C138.617 264.559 138.81 264.203 139.037 263.876C139.268 263.537 139.54 263.223 139.853 262.934C140.162 262.637 140.53 262.367 140.956 262.122C141.645 261.727 142.324 261.496 142.993 261.428C143.657 261.352 144.288 261.426 144.885 261.65C145.485 261.861 146.045 262.21 146.564 262.697C147.086 263.171 147.55 263.76 147.954 264.465L152.559 272.495L149.522 274.236L144.917 266.207C144.475 265.437 143.958 264.943 143.366 264.727C142.769 264.503 142.109 264.598 141.388 265.012C140.863 265.313 140.44 265.714 140.117 266.215C139.794 266.716 139.546 267.289 139.371 267.934L144.604 277.057L141.566 278.799L134.331 266.184L136.187 265.119C136.581 264.893 136.945 264.929 137.279 265.228L138.06 266.104ZM159.125 258.417C158.9 258.024 158.631 257.688 158.318 257.41C158.01 257.118 157.669 256.905 157.298 256.769C156.926 256.634 156.526 256.591 156.097 256.641C155.671 256.678 155.233 256.826 154.782 257.085C153.905 257.588 153.356 258.235 153.134 259.027C152.921 259.813 153.008 260.706 153.395 261.704L159.125 258.417ZM154.385 263.571C154.805 264.191 155.242 264.686 155.695 265.058C156.143 265.422 156.605 265.675 157.078 265.817C157.547 265.951 158.027 265.981 158.518 265.907C159.013 265.819 159.506 265.634 159.998 265.352C160.49 265.07 160.879 264.771 161.166 264.454C161.461 264.132 161.699 263.826 161.882 263.536C162.072 263.242 162.233 262.981 162.364 262.753C162.503 262.521 162.667 262.351 162.855 262.243C163.109 262.097 163.352 262.083 163.583 262.201L165.091 262.807C164.98 263.393 164.794 263.941 164.531 264.452C164.263 264.954 163.947 265.419 163.582 265.846C163.22 266.26 162.821 266.636 162.383 266.975C161.953 267.308 161.517 267.602 161.074 267.856C160.197 268.359 159.299 268.683 158.381 268.829C157.457 268.966 156.555 268.912 155.673 268.666C154.786 268.412 153.943 267.959 153.144 267.306C152.34 266.645 151.621 265.761 150.986 264.654C150.492 263.794 150.169 262.906 150.015 261.992C149.856 261.07 149.875 260.182 150.072 259.329C150.272 258.462 150.651 257.651 151.209 256.895C151.775 256.135 152.53 255.484 153.472 254.943C154.268 254.487 155.074 254.194 155.892 254.062C156.71 253.931 157.502 253.972 158.268 254.187C159.029 254.393 159.749 254.775 160.429 255.333C161.112 255.878 161.714 256.606 162.236 257.516C162.499 257.975 162.629 258.315 162.624 258.535C162.615 258.747 162.471 258.933 162.193 259.093L154.385 263.571ZM161.142 243.289L167.143 253.753L167.709 253.429C167.914 253.312 168.06 253.195 168.146 253.08C168.236 252.952 168.296 252.771 168.325 252.537L169.239 246.865C169.271 246.618 169.339 246.404 169.443 246.225C169.556 246.041 169.739 245.876 169.993 245.73L172.772 244.136L171.536 251.071C171.469 251.599 171.328 252.056 171.113 252.441C171.356 252.465 171.59 252.522 171.815 252.61C172.048 252.694 172.28 252.795 172.511 252.913L180.229 256.625L177.487 258.198C177.249 258.334 177.023 258.415 176.808 258.44C176.589 258.456 176.364 258.395 176.131 258.256L170.166 255.32C169.943 255.198 169.754 255.143 169.598 255.156C169.442 255.169 169.241 255.246 168.995 255.387L168.307 255.782L171.621 261.562L168.584 263.303L158.105 245.031L161.142 243.289ZM183.593 241.198C183.586 241.376 183.554 241.519 183.497 241.629C183.435 241.729 183.335 241.82 183.195 241.9C183.048 241.984 182.864 242.035 182.645 242.052C182.434 242.064 182.19 242.084 181.912 242.113C181.63 242.133 181.321 242.185 180.987 242.267C180.662 242.345 180.306 242.495 179.921 242.716C179.323 243.059 178.924 243.456 178.726 243.908C178.535 244.355 178.558 244.783 178.793 245.193C178.948 245.463 179.165 245.644 179.446 245.733C179.73 245.81 180.055 245.836 180.422 245.811C180.797 245.781 181.202 245.718 181.636 245.621C182.066 245.516 182.507 245.421 182.96 245.336C183.42 245.246 183.884 245.181 184.352 245.142C184.815 245.094 185.265 245.119 185.702 245.217C186.143 245.302 186.553 245.475 186.932 245.737C187.319 245.995 187.659 246.377 187.95 246.885C188.298 247.492 188.51 248.117 188.584 248.76C188.663 249.391 188.597 250.017 188.387 250.639C188.172 251.252 187.81 251.846 187.301 252.421C186.796 252.984 186.133 253.5 185.314 253.97C184.879 254.219 184.429 254.423 183.964 254.58C183.512 254.742 183.053 254.863 182.588 254.945C182.131 255.022 181.685 255.06 181.249 255.059C180.821 255.054 180.421 255.012 180.048 254.931L180.086 253.373C180.096 253.182 180.141 253.015 180.222 252.87C180.303 252.726 180.437 252.6 180.626 252.492C180.814 252.384 181.021 252.336 181.246 252.348C181.479 252.356 181.742 252.358 182.034 252.354C182.326 252.35 182.65 252.317 183.006 252.254C183.37 252.187 183.782 252.021 184.241 251.758C184.602 251.551 184.886 251.334 185.093 251.106C185.303 250.866 185.451 250.629 185.535 250.395C185.627 250.157 185.658 249.927 185.629 249.704C185.602 249.468 185.533 249.252 185.42 249.056C185.251 248.761 185.022 248.57 184.734 248.485C184.453 248.395 184.126 248.366 183.751 248.395C183.384 248.421 182.981 248.488 182.543 248.598C182.108 248.695 181.657 248.79 181.188 248.885C180.727 248.975 180.259 249.042 179.783 249.086C179.311 249.117 178.85 249.082 178.4 248.981C177.957 248.875 177.533 248.677 177.127 248.387C176.73 248.092 176.371 247.666 176.051 247.108C175.755 246.592 175.575 246.041 175.512 245.457C175.449 244.872 175.516 244.294 175.712 243.724C175.911 243.142 176.247 242.578 176.72 242.035C177.196 241.479 177.824 240.977 178.602 240.53C179.471 240.032 180.345 239.722 181.222 239.6C182.1 239.478 182.911 239.514 183.654 239.708L183.593 241.198ZM188.44 235.149L195.676 247.765L192.627 249.514L185.391 236.898L188.44 235.149ZM186.75 231.233C186.9 231.495 186.988 231.772 187.013 232.063C187.038 232.353 187.01 232.636 186.928 232.912C186.855 233.183 186.73 233.44 186.553 233.683C186.372 233.917 186.146 234.112 185.875 234.267C185.613 234.418 185.335 234.512 185.041 234.55C184.75 234.575 184.469 234.551 184.198 234.478C183.928 234.404 183.673 234.283 183.435 234.115C183.205 233.942 183.015 233.724 182.864 233.462C182.709 233.191 182.612 232.909 182.574 232.615C182.545 232.316 182.566 232.031 182.64 231.76C182.713 231.489 182.837 231.239 183.01 231.009C183.186 230.766 183.406 230.569 183.668 230.419C183.939 230.264 184.223 230.171 184.522 230.141C184.816 230.103 185.099 230.121 185.37 230.194C185.649 230.263 185.91 230.386 186.153 230.562C186.395 230.739 186.595 230.963 186.75 231.233ZM208.552 240.38L205.232 242.285L195.034 224.504L198.354 222.6L208.552 240.38ZM214.224 224.643C213.639 224.422 213.093 224.343 212.585 224.406C212.084 224.465 211.6 224.628 211.133 224.896C210.674 225.159 210.309 225.483 210.039 225.866C209.769 226.25 209.604 226.693 209.544 227.196C209.479 227.691 209.532 228.249 209.703 228.87C209.869 229.483 210.162 230.154 210.58 230.883C211.003 231.621 211.42 232.215 211.831 232.666C212.246 233.104 212.658 233.423 213.067 233.624C213.472 233.817 213.876 233.895 214.28 233.859C214.68 233.815 215.077 233.68 215.47 233.455C216.101 233.093 216.563 232.654 216.855 232.137C217.147 231.621 217.352 231.008 217.468 230.299L214.224 224.643ZM212.169 214.023L222.649 232.295L220.792 233.36C220.39 233.591 220.03 233.552 219.712 233.244L218.756 232.175C218.581 233.048 218.266 233.856 217.809 234.597C217.36 235.334 216.697 235.954 215.819 236.457C215.131 236.852 214.417 237.071 213.679 237.113C212.941 237.155 212.207 237.026 211.479 236.724C210.754 236.41 210.046 235.917 209.356 235.246C208.674 234.569 208.037 233.715 207.444 232.682C206.908 231.747 206.537 230.805 206.331 229.856C206.124 228.907 206.089 228.001 206.226 227.138C206.363 226.275 206.669 225.49 207.145 224.781C207.617 224.064 208.266 223.468 209.094 222.993C209.799 222.589 210.465 222.354 211.092 222.288C211.719 222.223 212.337 222.266 212.947 222.417L209.132 215.765L212.169 214.023ZM229.324 218.156C229.098 217.762 228.829 217.426 228.517 217.148C228.208 216.856 227.868 216.643 227.496 216.508C227.124 216.372 226.724 216.33 226.295 216.379C225.87 216.416 225.432 216.564 224.981 216.823C224.104 217.326 223.554 217.973 223.333 218.765C223.12 219.552 223.207 220.444 223.594 221.442L229.324 218.156ZM224.583 223.309C225.004 223.929 225.441 224.425 225.894 224.797C226.342 225.16 226.803 225.413 227.277 225.556C227.746 225.69 228.226 225.719 228.717 225.645C229.211 225.557 229.705 225.372 230.196 225.09C230.688 224.808 231.077 224.509 231.364 224.192C231.659 223.87 231.898 223.564 232.08 223.275C232.271 222.98 232.431 222.719 232.562 222.491C232.701 222.259 232.865 222.089 233.054 221.981C233.308 221.835 233.55 221.821 233.782 221.939L235.289 222.545C235.179 223.131 234.992 223.68 234.729 224.19C234.462 224.692 234.145 225.157 233.78 225.584C233.419 225.998 233.019 226.375 232.581 226.713C232.152 227.046 231.715 227.34 231.273 227.594C230.396 228.097 229.498 228.421 228.579 228.567C227.656 228.705 226.753 228.65 225.871 228.404C224.985 228.15 224.142 227.697 223.342 227.044C222.539 226.383 221.819 225.499 221.184 224.393C220.691 223.532 220.367 222.645 220.213 221.731C220.055 220.808 220.074 219.92 220.271 219.067C220.471 218.2 220.85 217.389 221.408 216.633C221.974 215.873 222.728 215.222 223.671 214.682C224.466 214.226 225.273 213.932 226.091 213.8C226.909 213.669 227.7 213.711 228.466 213.925C229.227 214.131 229.947 214.513 230.627 215.071C231.31 215.617 231.912 216.344 232.434 217.254C232.698 217.713 232.827 218.053 232.823 218.273C232.814 218.485 232.67 218.671 232.391 218.831L224.583 223.309Z" fill="black"/>
<path d="M346.549 274.098C347.258 274.098 347.853 274.013 348.335 273.843C348.817 273.673 349.2 273.446 349.484 273.163C349.776 272.879 349.984 272.548 350.107 272.17C350.24 271.792 350.306 271.391 350.306 270.966C350.306 270.521 350.235 270.124 350.093 269.775C349.951 269.416 349.729 269.113 349.427 268.868C349.124 268.612 348.732 268.419 348.25 268.286C347.778 268.154 347.206 268.088 346.535 268.088H342.694V274.098H346.549ZM342.694 259.526V265.451H345.727C347.031 265.451 348.014 265.215 348.676 264.743C349.346 264.27 349.682 263.519 349.682 262.489C349.682 261.421 349.38 260.66 348.775 260.207C348.17 259.753 347.225 259.526 345.94 259.526H342.694ZM345.94 256.578C347.282 256.578 348.43 256.705 349.384 256.961C350.339 257.216 351.118 257.58 351.723 258.052C352.337 258.525 352.786 259.096 353.07 259.767C353.353 260.438 353.495 261.194 353.495 262.035C353.495 262.517 353.424 262.98 353.282 263.424C353.141 263.859 352.919 264.27 352.616 264.658C352.323 265.036 351.945 265.381 351.482 265.692C351.029 266.004 350.485 266.269 349.852 266.486C352.668 267.119 354.076 268.641 354.076 271.051C354.076 271.92 353.911 272.723 353.58 273.46C353.249 274.197 352.767 274.835 352.134 275.374C351.501 275.903 350.721 276.319 349.795 276.621C348.869 276.924 347.811 277.075 346.62 277.075H338.881V256.578H345.94ZM360.282 256.011V277.075H356.781V256.011H360.282ZM370.206 262.305C371.284 262.305 372.262 262.479 373.14 262.829C374.029 263.179 374.785 263.675 375.408 264.317C376.042 264.96 376.528 265.744 376.868 266.671C377.209 267.597 377.379 268.631 377.379 269.775C377.379 270.928 377.209 271.967 376.868 272.893C376.528 273.819 376.042 274.609 375.408 275.261C374.785 275.913 374.029 276.413 373.14 276.763C372.262 277.113 371.284 277.288 370.206 277.288C369.119 277.288 368.132 277.113 367.244 276.763C366.355 276.413 365.595 275.913 364.961 275.261C364.338 274.609 363.851 273.819 363.501 272.893C363.161 271.967 362.991 270.928 362.991 269.775C362.991 268.631 363.161 267.597 363.501 266.671C363.851 265.744 364.338 264.96 364.961 264.317C365.595 263.675 366.355 263.179 367.244 262.829C368.132 262.479 369.119 262.305 370.206 262.305ZM370.206 274.594C371.416 274.594 372.309 274.188 372.885 273.375C373.471 272.563 373.764 271.372 373.764 269.803C373.764 268.234 373.471 267.039 372.885 266.217C372.309 265.395 371.416 264.984 370.206 264.984C368.978 264.984 368.066 265.399 367.47 266.231C366.885 267.053 366.592 268.244 366.592 269.803C366.592 271.362 366.885 272.553 367.47 273.375C368.066 274.188 368.978 274.594 370.206 274.594ZM385.255 269.449C385.689 269.449 386.067 269.392 386.389 269.279C386.71 269.156 386.975 268.99 387.183 268.783C387.4 268.575 387.561 268.324 387.665 268.031C387.778 267.738 387.835 267.417 387.835 267.067C387.835 266.349 387.617 265.782 387.183 265.366C386.757 264.941 386.115 264.729 385.255 264.729C384.395 264.729 383.748 264.941 383.313 265.366C382.888 265.782 382.675 266.349 382.675 267.067C382.675 267.408 382.727 267.724 382.831 268.017C382.944 268.31 383.105 268.565 383.313 268.783C383.53 268.99 383.799 269.156 384.121 269.279C384.452 269.392 384.83 269.449 385.255 269.449ZM389.21 277.727C389.21 277.444 389.125 277.212 388.954 277.032C388.784 276.853 388.553 276.716 388.26 276.621C387.967 276.517 387.622 276.442 387.225 276.395C386.838 276.347 386.422 276.314 385.978 276.295C385.543 276.267 385.089 276.243 384.617 276.224C384.154 276.206 383.7 276.168 383.256 276.111C382.869 276.328 382.552 276.584 382.306 276.877C382.07 277.169 381.952 277.51 381.952 277.897C381.952 278.152 382.013 278.389 382.136 278.606C382.269 278.833 382.472 279.026 382.746 279.187C383.029 279.348 383.393 279.471 383.837 279.556C384.281 279.65 384.825 279.697 385.467 279.697C386.119 279.697 386.682 279.645 387.154 279.541C387.627 279.447 388.014 279.31 388.317 279.13C388.628 278.96 388.855 278.752 388.997 278.507C389.139 278.27 389.21 278.011 389.21 277.727ZM392.697 263.028V264.332C392.697 264.747 392.446 265.003 391.945 265.097L390.641 265.338C390.84 265.839 390.939 266.387 390.939 266.982C390.939 267.701 390.792 268.353 390.5 268.939C390.216 269.515 389.819 270.006 389.309 270.413C388.799 270.819 388.194 271.136 387.494 271.362C386.805 271.58 386.058 271.688 385.255 271.688C384.971 271.688 384.697 271.674 384.433 271.646C384.168 271.618 383.908 271.58 383.653 271.533C383.199 271.807 382.973 272.114 382.973 272.454C382.973 272.747 383.105 272.964 383.37 273.106C383.644 273.238 384.003 273.333 384.447 273.389C384.891 273.446 385.397 273.484 385.964 273.503C386.531 273.512 387.112 273.541 387.707 273.588C388.302 273.635 388.884 273.72 389.451 273.843C390.018 273.956 390.523 274.141 390.967 274.396C391.411 274.651 391.766 275.001 392.03 275.445C392.304 275.88 392.442 276.442 392.442 277.132C392.442 277.774 392.281 278.398 391.96 279.003C391.648 279.608 391.189 280.146 390.585 280.619C389.989 281.091 389.252 281.469 388.373 281.753C387.504 282.046 386.512 282.192 385.397 282.192C384.3 282.192 383.346 282.083 382.533 281.866C381.72 281.658 381.045 281.375 380.506 281.016C379.968 280.666 379.566 280.26 379.301 279.797C379.037 279.334 378.904 278.852 378.904 278.351C378.904 277.67 379.108 277.103 379.514 276.65C379.93 276.187 380.497 275.818 381.215 275.544C380.827 275.346 380.52 275.081 380.294 274.75C380.067 274.42 379.953 273.985 379.953 273.446C379.953 273.229 379.991 273.007 380.067 272.78C380.152 272.544 380.27 272.312 380.421 272.085C380.582 271.859 380.78 271.646 381.016 271.447C381.253 271.24 381.531 271.055 381.853 270.895C381.116 270.498 380.535 269.969 380.109 269.307C379.693 268.646 379.486 267.871 379.486 266.982C379.486 266.264 379.627 265.617 379.911 265.04C380.204 264.454 380.605 263.958 381.116 263.552C381.635 263.136 382.245 262.82 382.944 262.602C383.653 262.385 384.423 262.276 385.255 262.276C385.878 262.276 386.464 262.342 387.012 262.475C387.561 262.598 388.061 262.782 388.515 263.028H392.697ZM405.312 273.304C405.709 273.786 406.139 274.127 406.602 274.325C407.074 274.523 407.571 274.623 408.09 274.623C408.629 274.623 409.111 274.528 409.536 274.339C409.971 274.141 410.339 273.838 410.642 273.432C410.944 273.016 411.176 272.492 411.336 271.859C411.497 271.216 411.577 270.451 411.577 269.562C411.577 267.965 411.313 266.812 410.784 266.104C410.254 265.385 409.494 265.026 408.501 265.026C407.83 265.026 407.244 265.182 406.744 265.494C406.243 265.796 405.766 266.226 405.312 266.784V273.304ZM405.312 264.317C405.898 263.703 406.545 263.217 407.254 262.857C407.972 262.489 408.79 262.305 409.706 262.305C410.547 262.305 411.303 262.47 411.974 262.801C412.655 263.131 413.231 263.609 413.704 264.232C414.186 264.847 414.554 265.593 414.809 266.472C415.064 267.351 415.192 268.338 415.192 269.435C415.192 270.616 415.045 271.688 414.753 272.652C414.46 273.616 414.039 274.443 413.491 275.133C412.952 275.813 412.3 276.343 411.535 276.721C410.769 277.099 409.919 277.288 408.983 277.288C408.53 277.288 408.119 277.24 407.75 277.146C407.382 277.061 407.041 276.938 406.729 276.777C406.418 276.617 406.129 276.423 405.865 276.196C405.61 275.96 405.364 275.7 405.128 275.416L404.972 276.395C404.915 276.64 404.816 276.815 404.674 276.919C404.542 277.023 404.358 277.075 404.121 277.075H401.811V256.011H405.312V264.317ZM425.579 270.866C424.568 270.914 423.717 271.003 423.027 271.136C422.338 271.258 421.785 271.419 421.369 271.618C420.953 271.816 420.655 272.048 420.476 272.312C420.296 272.577 420.207 272.865 420.207 273.177C420.207 273.791 420.386 274.231 420.745 274.495C421.114 274.76 421.591 274.892 422.177 274.892C422.895 274.892 423.514 274.764 424.034 274.509C424.563 274.245 425.078 273.848 425.579 273.319V270.866ZM417.556 264.558C419.228 263.028 421.241 262.262 423.594 262.262C424.445 262.262 425.206 262.404 425.877 262.687C426.548 262.961 427.115 263.349 427.578 263.85C428.041 264.341 428.39 264.932 428.627 265.622C428.872 266.311 428.995 267.067 428.995 267.89V277.075H427.407C427.077 277.075 426.822 277.028 426.642 276.933C426.462 276.829 426.321 276.626 426.217 276.324L425.905 275.275C425.536 275.605 425.177 275.898 424.828 276.154C424.478 276.399 424.114 276.607 423.736 276.777C423.358 276.947 422.952 277.075 422.517 277.16C422.092 277.255 421.619 277.302 421.1 277.302C420.485 277.302 419.918 277.221 419.399 277.061C418.879 276.891 418.43 276.64 418.052 276.31C417.674 275.979 417.381 275.568 417.173 275.076C416.965 274.585 416.861 274.013 416.861 273.361C416.861 272.993 416.923 272.629 417.046 272.27C417.168 271.901 417.367 271.551 417.641 271.221C417.924 270.89 418.288 270.578 418.732 270.285C419.177 269.992 419.72 269.737 420.362 269.52C421.015 269.302 421.771 269.128 422.63 268.995C423.49 268.853 424.473 268.768 425.579 268.74V267.89C425.579 266.916 425.371 266.198 424.955 265.735C424.539 265.262 423.939 265.026 423.155 265.026C422.588 265.026 422.115 265.092 421.737 265.225C421.369 265.357 421.043 265.508 420.759 265.678C420.476 265.839 420.216 265.985 419.98 266.118C419.753 266.25 419.498 266.316 419.214 266.316C418.969 266.316 418.761 266.255 418.591 266.132C418.421 266 418.283 265.848 418.18 265.678L417.556 264.558ZM437.608 269.449C438.043 269.449 438.421 269.392 438.742 269.279C439.063 269.156 439.328 268.99 439.536 268.783C439.753 268.575 439.914 268.324 440.018 268.031C440.131 267.738 440.188 267.417 440.188 267.067C440.188 266.349 439.971 265.782 439.536 265.366C439.111 264.941 438.468 264.729 437.608 264.729C436.748 264.729 436.101 264.941 435.666 265.366C435.241 265.782 435.028 266.349 435.028 267.067C435.028 267.408 435.08 267.724 435.184 268.017C435.298 268.31 435.458 268.565 435.666 268.783C435.884 268.99 436.153 269.156 436.474 269.279C436.805 269.392 437.183 269.449 437.608 269.449ZM441.563 277.727C441.563 277.444 441.478 277.212 441.308 277.032C441.138 276.853 440.906 276.716 440.613 276.621C440.32 276.517 439.975 276.442 439.578 276.395C439.191 276.347 438.775 276.314 438.331 276.295C437.896 276.267 437.443 276.243 436.97 276.224C436.507 276.206 436.054 276.168 435.609 276.111C435.222 276.328 434.905 276.584 434.66 276.877C434.423 277.169 434.305 277.51 434.305 277.897C434.305 278.152 434.367 278.389 434.49 278.606C434.622 278.833 434.825 279.026 435.099 279.187C435.383 279.348 435.746 279.471 436.191 279.556C436.635 279.65 437.178 279.697 437.821 279.697C438.473 279.697 439.035 279.645 439.508 279.541C439.98 279.447 440.368 279.31 440.67 279.13C440.982 278.96 441.209 278.752 441.35 278.507C441.492 278.27 441.563 278.011 441.563 277.727ZM445.05 263.028V264.332C445.05 264.747 444.8 265.003 444.299 265.097L442.995 265.338C443.193 265.839 443.292 266.387 443.292 266.982C443.292 267.701 443.146 268.353 442.853 268.939C442.569 269.515 442.172 270.006 441.662 270.413C441.152 270.819 440.547 271.136 439.848 271.362C439.158 271.58 438.411 271.688 437.608 271.688C437.325 271.688 437.051 271.674 436.786 271.646C436.521 271.618 436.262 271.58 436.006 271.533C435.553 271.807 435.326 272.114 435.326 272.454C435.326 272.747 435.458 272.964 435.723 273.106C435.997 273.238 436.356 273.333 436.8 273.389C437.244 273.446 437.75 273.484 438.317 273.503C438.884 273.512 439.465 273.541 440.06 273.588C440.656 273.635 441.237 273.72 441.804 273.843C442.371 273.956 442.877 274.141 443.321 274.396C443.765 274.651 444.119 275.001 444.384 275.445C444.658 275.88 444.795 276.442 444.795 277.132C444.795 277.774 444.634 278.398 444.313 279.003C444.001 279.608 443.543 280.146 442.938 280.619C442.343 281.091 441.605 281.469 440.727 281.753C439.857 282.046 438.865 282.192 437.75 282.192C436.654 282.192 435.699 282.083 434.887 281.866C434.074 281.658 433.398 281.375 432.86 281.016C432.321 280.666 431.919 280.26 431.655 279.797C431.39 279.334 431.258 278.852 431.258 278.351C431.258 277.67 431.461 277.103 431.867 276.65C432.283 276.187 432.85 275.818 433.568 275.544C433.181 275.346 432.874 275.081 432.647 274.75C432.42 274.42 432.307 273.985 432.307 273.446C432.307 273.229 432.344 273.007 432.42 272.78C432.505 272.544 432.623 272.312 432.774 272.085C432.935 271.859 433.134 271.646 433.37 271.447C433.606 271.24 433.885 271.055 434.206 270.895C433.469 270.498 432.888 269.969 432.463 269.307C432.047 268.646 431.839 267.871 431.839 266.982C431.839 266.264 431.981 265.617 432.264 265.04C432.557 264.454 432.959 263.958 433.469 263.552C433.989 263.136 434.598 262.82 435.298 262.602C436.006 262.385 436.777 262.276 437.608 262.276C438.232 262.276 438.818 262.342 439.366 262.475C439.914 262.598 440.415 262.782 440.868 263.028H445.05ZM459.801 262.531V277.075H457.661C457.198 277.075 456.905 276.862 456.782 276.437L456.541 275.275C455.945 275.88 455.289 276.371 454.571 276.749C453.852 277.117 453.007 277.302 452.033 277.302C451.239 277.302 450.535 277.169 449.921 276.905C449.316 276.631 448.806 276.248 448.39 275.757C447.974 275.265 447.658 274.684 447.44 274.013C447.233 273.333 447.129 272.586 447.129 271.774V262.531H450.63V271.774C450.63 272.662 450.833 273.352 451.239 273.843C451.655 274.325 452.274 274.566 453.096 274.566C453.701 274.566 454.268 274.434 454.797 274.169C455.327 273.895 455.827 273.522 456.3 273.049V262.531H459.801ZM472.146 265.366C472.052 265.518 471.952 265.626 471.849 265.692C471.745 265.749 471.612 265.777 471.452 265.777C471.282 265.777 471.097 265.73 470.899 265.636C470.71 265.541 470.488 265.437 470.233 265.324C469.977 265.201 469.684 265.092 469.354 264.998C469.032 264.903 468.65 264.856 468.206 264.856C467.516 264.856 466.972 265.003 466.575 265.296C466.188 265.588 465.994 265.971 465.994 266.444C465.994 266.756 466.093 267.02 466.292 267.238C466.5 267.445 466.769 267.63 467.1 267.79C467.44 267.951 467.823 268.097 468.248 268.23C468.673 268.353 469.103 268.49 469.538 268.641C469.982 268.792 470.417 268.967 470.842 269.165C471.267 269.354 471.645 269.6 471.976 269.902C472.316 270.195 472.586 270.55 472.784 270.966C472.992 271.381 473.096 271.882 473.096 272.468C473.096 273.167 472.968 273.815 472.713 274.41C472.468 274.996 472.099 275.506 471.608 275.941C471.116 276.366 470.507 276.702 469.779 276.947C469.061 277.184 468.229 277.302 467.284 277.302C466.783 277.302 466.292 277.255 465.81 277.16C465.337 277.075 464.879 276.952 464.435 276.791C464 276.631 463.594 276.442 463.216 276.224C462.847 276.007 462.521 275.771 462.238 275.516L463.046 274.183C463.15 274.023 463.273 273.9 463.414 273.815C463.556 273.73 463.736 273.687 463.953 273.687C464.17 273.687 464.374 273.749 464.563 273.871C464.761 273.994 464.988 274.127 465.243 274.268C465.498 274.41 465.796 274.542 466.136 274.665C466.486 274.788 466.925 274.849 467.454 274.849C467.87 274.849 468.224 274.802 468.517 274.708C468.82 274.604 469.066 274.471 469.255 274.311C469.453 274.15 469.595 273.966 469.68 273.758C469.774 273.541 469.822 273.319 469.822 273.092C469.822 272.752 469.718 272.473 469.51 272.255C469.311 272.038 469.042 271.849 468.702 271.688C468.371 271.528 467.988 271.386 467.554 271.263C467.128 271.131 466.689 270.989 466.235 270.838C465.791 270.687 465.352 270.512 464.917 270.313C464.492 270.106 464.109 269.846 463.769 269.534C463.438 269.222 463.169 268.839 462.961 268.386C462.762 267.932 462.663 267.384 462.663 266.741C462.663 266.146 462.781 265.579 463.018 265.04C463.254 264.502 463.599 264.034 464.052 263.637C464.515 263.231 465.087 262.909 465.767 262.673C466.457 262.427 467.251 262.305 468.149 262.305C469.151 262.305 470.062 262.47 470.885 262.801C471.707 263.131 472.392 263.566 472.94 264.105L472.146 265.366ZM341.866 290.578V311.075H338.506V297.836C338.506 297.306 338.534 296.735 338.591 296.12L332.397 307.758C332.104 308.316 331.655 308.594 331.05 308.594H330.511C329.907 308.594 329.458 308.316 329.165 307.758L322.899 296.078C322.928 296.39 322.951 296.697 322.97 296.999C322.989 297.302 322.999 297.58 322.999 297.836V311.075H319.639V290.578H322.517C322.687 290.578 322.833 290.583 322.956 290.592C323.079 290.602 323.188 290.625 323.282 290.663C323.386 290.701 323.476 290.762 323.551 290.847C323.636 290.932 323.717 291.046 323.792 291.187L329.93 302.57C330.091 302.872 330.237 303.184 330.37 303.506C330.511 303.827 330.648 304.158 330.781 304.498C330.913 304.148 331.05 303.813 331.192 303.491C331.334 303.161 331.485 302.844 331.645 302.542L337.698 291.187C337.774 291.046 337.854 290.932 337.939 290.847C338.024 290.762 338.114 290.701 338.208 290.663C338.312 290.625 338.426 290.602 338.549 290.592C338.671 290.583 338.818 290.578 338.988 290.578H341.866ZM354.813 302.131C354.813 301.677 354.746 301.252 354.614 300.855C354.491 300.448 354.302 300.094 354.047 299.792C353.792 299.489 353.466 299.253 353.069 299.083C352.682 298.903 352.228 298.814 351.708 298.814C350.697 298.814 349.899 299.102 349.313 299.678C348.736 300.255 348.368 301.072 348.207 302.131H354.813ZM348.136 304.243C348.193 304.989 348.325 305.636 348.533 306.185C348.741 306.723 349.015 307.172 349.355 307.531C349.695 307.881 350.097 308.145 350.56 308.325C351.033 308.495 351.552 308.58 352.119 308.58C352.686 308.58 353.173 308.514 353.579 308.382C353.995 308.249 354.354 308.103 354.657 307.942C354.969 307.782 355.238 307.635 355.465 307.503C355.701 307.371 355.928 307.304 356.145 307.304C356.438 307.304 356.655 307.413 356.797 307.63L357.804 308.906C357.416 309.36 356.981 309.743 356.499 310.054C356.018 310.357 355.512 310.602 354.983 310.791C354.463 310.971 353.929 311.099 353.381 311.174C352.842 311.25 352.318 311.288 351.808 311.288C350.796 311.288 349.856 311.122 348.987 310.791C348.117 310.451 347.361 309.955 346.719 309.303C346.076 308.642 345.571 307.829 345.202 306.865C344.833 305.892 344.649 304.767 344.649 303.491C344.649 302.499 344.81 301.568 345.131 300.699C345.452 299.82 345.911 299.059 346.506 298.417C347.111 297.765 347.843 297.25 348.703 296.872C349.573 296.494 350.551 296.305 351.637 296.305C352.554 296.305 353.4 296.451 354.175 296.744C354.95 297.037 355.616 297.467 356.173 298.034C356.731 298.592 357.166 299.281 357.478 300.104C357.799 300.916 357.959 301.847 357.959 302.896C357.959 303.425 357.903 303.784 357.789 303.973C357.676 304.153 357.459 304.243 357.137 304.243H348.136ZM363.861 298.317C364.154 298.025 364.461 297.755 364.783 297.509C365.114 297.254 365.458 297.042 365.818 296.872C366.186 296.692 366.578 296.555 366.994 296.461C367.41 296.357 367.863 296.305 368.355 296.305C369.149 296.305 369.853 296.442 370.467 296.716C371.081 296.98 371.591 297.358 371.998 297.85C372.414 298.332 372.725 298.913 372.933 299.593C373.151 300.264 373.259 301.006 373.259 301.819V311.075H369.758V301.819C369.758 300.93 369.555 300.245 369.149 299.763C368.742 299.272 368.123 299.026 367.292 299.026C366.687 299.026 366.12 299.163 365.591 299.437C365.062 299.711 364.561 300.085 364.088 300.557V311.075H360.587V296.531H362.727C363.181 296.531 363.479 296.744 363.62 297.169L363.861 298.317ZM381.905 303.449C382.34 303.449 382.718 303.392 383.039 303.279C383.36 303.156 383.625 302.99 383.833 302.783C384.05 302.575 384.211 302.324 384.315 302.031C384.428 301.738 384.485 301.417 384.485 301.067C384.485 300.349 384.267 299.782 383.833 299.366C383.407 298.941 382.765 298.729 381.905 298.729C381.045 298.729 380.398 298.941 379.963 299.366C379.538 299.782 379.325 300.349 379.325 301.067C379.325 301.408 379.377 301.724 379.481 302.017C379.594 302.31 379.755 302.565 379.963 302.783C380.18 302.99 380.45 303.156 380.771 303.279C381.102 303.392 381.48 303.449 381.905 303.449ZM385.86 311.727C385.86 311.444 385.775 311.212 385.604 311.032C385.434 310.853 385.203 310.716 384.91 310.621C384.617 310.517 384.272 310.442 383.875 310.395C383.488 310.347 383.072 310.314 382.628 310.295C382.193 310.267 381.739 310.243 381.267 310.224C380.804 310.206 380.35 310.168 379.906 310.111C379.519 310.328 379.202 310.584 378.956 310.877C378.72 311.169 378.602 311.51 378.602 311.897C378.602 312.152 378.663 312.389 378.786 312.606C378.919 312.833 379.122 313.026 379.396 313.187C379.679 313.348 380.043 313.471 380.487 313.556C380.931 313.65 381.475 313.697 382.117 313.697C382.769 313.697 383.332 313.645 383.804 313.541C384.277 313.447 384.664 313.31 384.967 313.13C385.278 312.96 385.505 312.752 385.647 312.507C385.789 312.27 385.86 312.011 385.86 311.727ZM389.347 297.028V298.332C389.347 298.747 389.096 299.003 388.595 299.097L387.291 299.338C387.49 299.839 387.589 300.387 387.589 300.982C387.589 301.701 387.443 302.353 387.15 302.939C386.866 303.515 386.469 304.006 385.959 304.413C385.449 304.819 384.844 305.136 384.144 305.362C383.455 305.58 382.708 305.688 381.905 305.688C381.621 305.688 381.347 305.674 381.083 305.646C380.818 305.618 380.558 305.58 380.303 305.533C379.849 305.807 379.623 306.114 379.623 306.454C379.623 306.747 379.755 306.964 380.02 307.106C380.294 307.238 380.653 307.333 381.097 307.389C381.541 307.446 382.047 307.484 382.614 307.503C383.181 307.512 383.762 307.541 384.357 307.588C384.952 307.635 385.534 307.72 386.101 307.843C386.668 307.956 387.173 308.141 387.617 308.396C388.061 308.651 388.416 309.001 388.68 309.445C388.955 309.88 389.092 310.442 389.092 311.132C389.092 311.774 388.931 312.398 388.61 313.003C388.298 313.608 387.839 314.146 387.235 314.619C386.639 315.091 385.902 315.469 385.023 315.753C384.154 316.046 383.162 316.192 382.047 316.192C380.95 316.192 379.996 316.083 379.183 315.866C378.371 315.658 377.695 315.375 377.156 315.016C376.618 314.666 376.216 314.26 375.951 313.797C375.687 313.334 375.554 312.852 375.554 312.351C375.554 311.67 375.758 311.103 376.164 310.65C376.58 310.187 377.147 309.818 377.865 309.544C377.477 309.346 377.17 309.081 376.944 308.75C376.717 308.42 376.603 307.985 376.603 307.446C376.603 307.229 376.641 307.007 376.717 306.78C376.802 306.544 376.92 306.312 377.071 306.085C377.232 305.859 377.43 305.646 377.666 305.447C377.903 305.24 378.182 305.055 378.503 304.895C377.766 304.498 377.185 303.969 376.759 303.307C376.343 302.646 376.136 301.871 376.136 300.982C376.136 300.264 376.277 299.617 376.561 299.04C376.854 298.454 377.255 297.958 377.766 297.552C378.285 297.136 378.895 296.82 379.594 296.602C380.303 296.385 381.073 296.276 381.905 296.276C382.529 296.276 383.114 296.342 383.663 296.475C384.211 296.598 384.711 296.782 385.165 297.028H389.347ZM395.196 296.531V311.075H391.68V296.531H395.196ZM395.678 292.293C395.678 292.595 395.616 292.879 395.494 293.144C395.371 293.408 395.205 293.64 394.997 293.838C394.799 294.037 394.563 294.197 394.289 294.32C394.015 294.434 393.722 294.49 393.41 294.49C393.107 294.49 392.819 294.434 392.545 294.32C392.281 294.197 392.049 294.037 391.851 293.838C391.652 293.64 391.491 293.408 391.369 293.144C391.255 292.879 391.199 292.595 391.199 292.293C391.199 291.981 391.255 291.688 391.369 291.414C391.491 291.14 391.652 290.904 391.851 290.705C392.049 290.507 392.281 290.351 392.545 290.238C392.819 290.115 393.107 290.053 393.41 290.053C393.722 290.053 394.015 290.115 394.289 290.238C394.563 290.351 394.799 290.507 394.997 290.705C395.205 290.904 395.371 291.14 395.494 291.414C395.616 291.688 395.678 291.981 395.678 292.293ZM402.04 298.317C402.333 298.025 402.64 297.755 402.961 297.509C403.292 297.254 403.637 297.042 403.996 296.872C404.364 296.692 404.757 296.555 405.172 296.461C405.588 296.357 406.042 296.305 406.533 296.305C407.327 296.305 408.031 296.442 408.645 296.716C409.26 296.98 409.77 297.358 410.176 297.85C410.592 298.332 410.904 298.913 411.112 299.593C411.329 300.264 411.438 301.006 411.438 301.819V311.075H407.937V301.819C407.937 300.93 407.733 300.245 407.327 299.763C406.921 299.272 406.302 299.026 405.47 299.026C404.865 299.026 404.298 299.163 403.769 299.437C403.24 299.711 402.739 300.085 402.267 300.557V311.075H398.765V296.531H400.906C401.359 296.531 401.657 296.744 401.799 297.169L402.04 298.317ZM423.641 299.366C423.547 299.518 423.447 299.626 423.343 299.692C423.239 299.749 423.107 299.777 422.947 299.777C422.776 299.777 422.592 299.73 422.394 299.636C422.205 299.541 421.983 299.437 421.727 299.324C421.472 299.201 421.179 299.092 420.849 298.998C420.527 298.903 420.145 298.856 419.7 298.856C419.011 298.856 418.467 299.003 418.07 299.296C417.683 299.588 417.489 299.971 417.489 300.444C417.489 300.756 417.588 301.02 417.787 301.238C417.995 301.445 418.264 301.63 418.595 301.79C418.935 301.951 419.318 302.097 419.743 302.23C420.168 302.353 420.598 302.49 421.033 302.641C421.477 302.792 421.912 302.967 422.337 303.165C422.762 303.354 423.14 303.6 423.471 303.902C423.811 304.195 424.081 304.55 424.279 304.966C424.487 305.381 424.591 305.882 424.591 306.468C424.591 307.167 424.463 307.815 424.208 308.41C423.962 308.996 423.594 309.506 423.102 309.941C422.611 310.366 422.002 310.702 421.274 310.947C420.556 311.184 419.724 311.302 418.779 311.302C418.278 311.302 417.787 311.255 417.305 311.16C416.832 311.075 416.374 310.952 415.93 310.791C415.495 310.631 415.089 310.442 414.711 310.224C414.342 310.007 414.016 309.771 413.733 309.516L414.541 308.183C414.645 308.023 414.768 307.9 414.909 307.815C415.051 307.73 415.231 307.687 415.448 307.687C415.665 307.687 415.868 307.749 416.057 307.871C416.256 307.994 416.483 308.127 416.738 308.268C416.993 308.41 417.291 308.542 417.631 308.665C417.981 308.788 418.42 308.849 418.949 308.849C419.365 308.849 419.719 308.802 420.012 308.708C420.315 308.604 420.56 308.471 420.749 308.311C420.948 308.15 421.09 307.966 421.175 307.758C421.269 307.541 421.316 307.319 421.316 307.092C421.316 306.752 421.212 306.473 421.005 306.255C420.806 306.038 420.537 305.849 420.197 305.688C419.866 305.528 419.483 305.386 419.048 305.263C418.623 305.131 418.184 304.989 417.73 304.838C417.286 304.687 416.847 304.512 416.412 304.313C415.987 304.106 415.604 303.846 415.264 303.534C414.933 303.222 414.664 302.839 414.456 302.386C414.257 301.932 414.158 301.384 414.158 300.741C414.158 300.146 414.276 299.579 414.512 299.04C414.749 298.502 415.094 298.034 415.547 297.637C416.01 297.231 416.582 296.909 417.262 296.673C417.952 296.427 418.746 296.305 419.644 296.305C420.645 296.305 421.557 296.47 422.38 296.801C423.202 297.131 423.887 297.566 424.435 298.105L423.641 299.366ZM430.727 307.304C431.124 307.786 431.554 308.127 432.017 308.325C432.49 308.523 433 308.623 433.548 308.623C434.077 308.623 434.555 308.523 434.98 308.325C435.405 308.127 435.764 307.824 436.057 307.418C436.359 307.011 436.591 306.501 436.752 305.887C436.912 305.263 436.993 304.531 436.993 303.69C436.993 302.839 436.922 302.121 436.78 301.535C436.648 300.94 436.454 300.458 436.199 300.089C435.944 299.721 435.632 299.451 435.263 299.281C434.904 299.111 434.493 299.026 434.03 299.026C433.302 299.026 432.683 299.182 432.173 299.494C431.663 299.796 431.181 300.226 430.727 300.784V307.304ZM430.543 298.516C431.138 297.845 431.814 297.302 432.57 296.886C433.326 296.47 434.214 296.262 435.235 296.262C436.029 296.262 436.752 296.427 437.404 296.758C438.065 297.089 438.632 297.571 439.105 298.204C439.587 298.828 439.955 299.603 440.21 300.529C440.475 301.445 440.607 302.499 440.607 303.69C440.607 304.777 440.461 305.783 440.168 306.709C439.875 307.635 439.454 308.438 438.906 309.119C438.368 309.799 437.711 310.333 436.936 310.721C436.17 311.099 435.311 311.288 434.356 311.288C433.543 311.288 432.849 311.165 432.272 310.919C431.696 310.664 431.181 310.314 430.727 309.87V315.824H427.226V296.531H429.366C429.82 296.531 430.118 296.744 430.26 297.169L430.543 298.516ZM446.968 296.531V311.075H443.452V296.531H446.968ZM447.45 292.293C447.45 292.595 447.388 292.879 447.266 293.144C447.143 293.408 446.977 293.64 446.769 293.838C446.571 294.037 446.335 294.197 446.061 294.32C445.787 294.434 445.494 294.49 445.182 294.49C444.879 294.49 444.591 294.434 444.317 294.32C444.053 294.197 443.821 294.037 443.623 293.838C443.424 293.64 443.263 293.408 443.141 293.144C443.027 292.879 442.971 292.595 442.971 292.293C442.971 291.981 443.027 291.688 443.141 291.414C443.263 291.14 443.424 290.904 443.623 290.705C443.821 290.507 444.053 290.351 444.317 290.238C444.591 290.115 444.879 290.053 445.182 290.053C445.494 290.053 445.787 290.115 446.061 290.238C446.335 290.351 446.571 290.507 446.769 290.705C446.977 290.904 447.143 291.14 447.266 291.414C447.388 291.688 447.45 291.981 447.45 292.293ZM453.84 299.055C454.294 298.185 454.832 297.505 455.456 297.013C456.08 296.513 456.817 296.262 457.667 296.262C458.338 296.262 458.877 296.409 459.283 296.702L459.056 299.324C459.009 299.494 458.938 299.617 458.844 299.692C458.759 299.759 458.641 299.792 458.489 299.792C458.348 299.792 458.135 299.768 457.852 299.721C457.578 299.674 457.308 299.65 457.044 299.65C456.656 299.65 456.311 299.707 456.009 299.82C455.706 299.933 455.432 300.099 455.187 300.316C454.95 300.524 454.738 300.779 454.549 301.082C454.369 301.384 454.199 301.729 454.039 302.116V311.075H450.537V296.531H452.593C452.952 296.531 453.202 296.598 453.344 296.73C453.486 296.853 453.58 297.08 453.627 297.41L453.84 299.055ZM468.602 304.866C467.591 304.914 466.741 305.003 466.051 305.136C465.361 305.258 464.808 305.419 464.392 305.618C463.976 305.816 463.679 306.048 463.499 306.312C463.32 306.577 463.23 306.865 463.23 307.177C463.23 307.791 463.409 308.231 463.769 308.495C464.137 308.76 464.614 308.892 465.2 308.892C465.918 308.892 466.537 308.764 467.057 308.509C467.586 308.245 468.101 307.848 468.602 307.319V304.866ZM460.579 298.558C462.252 297.028 464.265 296.262 466.618 296.262C467.468 296.262 468.229 296.404 468.9 296.687C469.571 296.961 470.138 297.349 470.601 297.85C471.064 298.341 471.414 298.932 471.65 299.622C471.896 300.311 472.018 301.067 472.018 301.89V311.075H470.431C470.1 311.075 469.845 311.028 469.665 310.933C469.486 310.829 469.344 310.626 469.24 310.324L468.928 309.275C468.56 309.605 468.201 309.898 467.851 310.154C467.501 310.399 467.137 310.607 466.759 310.777C466.381 310.947 465.975 311.075 465.54 311.16C465.115 311.255 464.643 311.302 464.123 311.302C463.509 311.302 462.942 311.221 462.422 311.061C461.902 310.891 461.453 310.64 461.075 310.31C460.697 309.979 460.404 309.568 460.196 309.076C459.989 308.585 459.885 308.013 459.885 307.361C459.885 306.993 459.946 306.629 460.069 306.27C460.192 305.901 460.39 305.551 460.664 305.221C460.948 304.89 461.312 304.578 461.756 304.285C462.2 303.992 462.743 303.737 463.386 303.52C464.038 303.302 464.794 303.128 465.654 302.995C466.514 302.853 467.497 302.768 468.602 302.74V301.89C468.602 300.916 468.394 300.198 467.979 299.735C467.563 299.262 466.963 299.026 466.178 299.026C465.611 299.026 465.139 299.092 464.761 299.225C464.392 299.357 464.066 299.508 463.783 299.678C463.499 299.839 463.239 299.985 463.003 300.118C462.776 300.25 462.521 300.316 462.238 300.316C461.992 300.316 461.784 300.255 461.614 300.132C461.444 300 461.307 299.848 461.203 299.678L460.579 298.558ZM484.189 299.366C484.095 299.518 483.996 299.626 483.892 299.692C483.788 299.749 483.655 299.777 483.495 299.777C483.325 299.777 483.14 299.73 482.942 299.636C482.753 299.541 482.531 299.437 482.276 299.324C482.021 299.201 481.728 299.092 481.397 298.998C481.076 298.903 480.693 298.856 480.249 298.856C479.559 298.856 479.016 299.003 478.619 299.296C478.231 299.588 478.037 299.971 478.037 300.444C478.037 300.756 478.137 301.02 478.335 301.238C478.543 301.445 478.812 301.63 479.143 301.79C479.483 301.951 479.866 302.097 480.291 302.23C480.717 302.353 481.147 302.49 481.581 302.641C482.025 302.792 482.46 302.967 482.885 303.165C483.311 303.354 483.689 303.6 484.019 303.902C484.36 304.195 484.629 304.55 484.827 304.966C485.035 305.381 485.139 305.882 485.139 306.468C485.139 307.167 485.012 307.815 484.756 308.41C484.511 308.996 484.142 309.506 483.651 309.941C483.159 310.366 482.55 310.702 481.822 310.947C481.104 311.184 480.272 311.302 479.327 311.302C478.827 311.302 478.335 311.255 477.853 311.16C477.381 311.075 476.922 310.952 476.478 310.791C476.044 310.631 475.637 310.442 475.259 310.224C474.891 310.007 474.565 309.771 474.281 309.516L475.089 308.183C475.193 308.023 475.316 307.9 475.458 307.815C475.599 307.73 475.779 307.687 475.996 307.687C476.214 307.687 476.417 307.749 476.606 307.871C476.804 307.994 477.031 308.127 477.286 308.268C477.541 308.41 477.839 308.542 478.179 308.665C478.529 308.788 478.968 308.849 479.497 308.849C479.913 308.849 480.268 308.802 480.561 308.708C480.863 308.604 481.109 308.471 481.298 308.311C481.496 308.15 481.638 307.966 481.723 307.758C481.817 307.541 481.865 307.319 481.865 307.092C481.865 306.752 481.761 306.473 481.553 306.255C481.354 306.038 481.085 305.849 480.745 305.688C480.414 305.528 480.031 305.386 479.597 305.263C479.171 305.131 478.732 304.989 478.278 304.838C477.834 304.687 477.395 304.512 476.96 304.313C476.535 304.106 476.152 303.846 475.812 303.534C475.481 303.222 475.212 302.839 475.004 302.386C474.806 301.932 474.706 301.384 474.706 300.741C474.706 300.146 474.824 299.579 475.061 299.04C475.297 298.502 475.642 298.034 476.095 297.637C476.559 297.231 477.13 296.909 477.811 296.673C478.501 296.427 479.294 296.305 480.192 296.305C481.194 296.305 482.106 296.47 482.928 296.801C483.75 297.131 484.435 297.566 484.983 298.105L484.189 299.366ZM491.403 296.531V311.075H487.888V296.531H491.403ZM491.885 292.293C491.885 292.595 491.824 292.879 491.701 293.144C491.578 293.408 491.413 293.64 491.205 293.838C491.006 294.037 490.77 294.197 490.496 294.32C490.222 294.434 489.929 294.49 489.617 294.49C489.315 294.49 489.026 294.434 488.752 294.32C488.488 294.197 488.256 294.037 488.058 293.838C487.859 293.64 487.699 293.408 487.576 293.144C487.463 292.879 487.406 292.595 487.406 292.293C487.406 291.981 487.463 291.688 487.576 291.414C487.699 291.14 487.859 290.904 488.058 290.705C488.256 290.507 488.488 290.351 488.752 290.238C489.026 290.115 489.315 290.053 489.617 290.053C489.929 290.053 490.222 290.115 490.496 290.238C490.77 290.351 491.006 290.507 491.205 290.705C491.413 290.904 491.578 291.14 491.701 291.414C491.824 291.688 491.885 291.981 491.885 292.293Z" fill="black"/>
<path d="M653.219 244.679C653.427 244.679 653.611 244.759 653.772 244.92L655.274 246.55C654.443 247.58 653.417 248.369 652.198 248.917C650.989 249.465 649.533 249.739 647.832 249.739C646.311 249.739 644.941 249.479 643.722 248.96C642.512 248.44 641.477 247.717 640.617 246.791C639.757 245.865 639.096 244.759 638.633 243.474C638.179 242.189 637.952 240.785 637.952 239.264C637.952 237.724 638.198 236.316 638.689 235.04C639.181 233.755 639.871 232.649 640.759 231.723C641.657 230.797 642.725 230.079 643.963 229.568C645.201 229.048 646.571 228.789 648.073 228.789C649.566 228.789 650.889 229.034 652.042 229.526C653.205 230.017 654.192 230.66 655.005 231.454L653.729 233.225C653.654 233.339 653.554 233.438 653.431 233.523C653.318 233.608 653.157 233.651 652.95 233.651C652.808 233.651 652.661 233.613 652.51 233.537C652.359 233.452 652.194 233.353 652.014 233.24C651.834 233.117 651.627 232.984 651.39 232.843C651.154 232.701 650.88 232.573 650.568 232.46C650.256 232.337 649.892 232.238 649.477 232.162C649.07 232.077 648.598 232.035 648.059 232.035C647.143 232.035 646.301 232.2 645.536 232.531C644.78 232.852 644.128 233.325 643.58 233.948C643.032 234.563 642.607 235.319 642.304 236.216C642.002 237.105 641.851 238.12 641.851 239.264C641.851 240.417 642.011 241.442 642.332 242.34C642.663 243.238 643.107 243.994 643.665 244.608C644.222 245.222 644.879 245.695 645.635 246.025C646.391 246.347 647.204 246.507 648.073 246.507C648.593 246.507 649.061 246.479 649.477 246.422C649.902 246.366 650.289 246.276 650.639 246.153C650.998 246.03 651.334 245.874 651.645 245.685C651.967 245.487 652.283 245.246 652.595 244.962C652.69 244.877 652.789 244.811 652.893 244.764C652.997 244.707 653.105 244.679 653.219 244.679ZM666.399 240.568C666.399 240.114 666.332 239.689 666.2 239.292C666.077 238.886 665.888 238.532 665.633 238.229C665.378 237.927 665.052 237.691 664.655 237.52C664.268 237.341 663.814 237.251 663.294 237.251C662.283 237.251 661.485 237.539 660.899 238.116C660.322 238.692 659.954 239.51 659.793 240.568H666.399ZM659.722 242.68C659.779 243.427 659.911 244.074 660.119 244.622C660.327 245.161 660.601 245.61 660.941 245.969C661.281 246.318 661.683 246.583 662.146 246.763C662.619 246.933 663.138 247.018 663.705 247.018C664.272 247.018 664.759 246.952 665.165 246.819C665.581 246.687 665.94 246.54 666.243 246.38C666.554 246.219 666.824 246.073 667.051 245.94C667.287 245.808 667.514 245.742 667.731 245.742C668.024 245.742 668.241 245.851 668.383 246.068L669.389 247.344C669.002 247.797 668.567 248.18 668.085 248.492C667.603 248.794 667.098 249.04 666.569 249.229C666.049 249.409 665.515 249.536 664.967 249.612C664.428 249.687 663.904 249.725 663.393 249.725C662.382 249.725 661.442 249.56 660.573 249.229C659.703 248.889 658.947 248.393 658.305 247.741C657.662 247.079 657.156 246.266 656.788 245.302C656.419 244.329 656.235 243.205 656.235 241.929C656.235 240.937 656.396 240.006 656.717 239.136C657.038 238.258 657.497 237.497 658.092 236.854C658.697 236.202 659.429 235.687 660.289 235.309C661.158 234.931 662.137 234.742 663.223 234.742C664.14 234.742 664.986 234.889 665.761 235.182C666.536 235.474 667.202 235.904 667.759 236.471C668.317 237.029 668.752 237.719 669.063 238.541C669.385 239.354 669.545 240.285 669.545 241.333C669.545 241.863 669.489 242.222 669.375 242.411C669.262 242.59 669.045 242.68 668.723 242.68H659.722ZM675.476 237.492C675.929 236.623 676.468 235.942 677.092 235.451C677.715 234.95 678.452 234.7 679.303 234.7C679.974 234.7 680.512 234.846 680.919 235.139L680.692 237.761C680.645 237.931 680.574 238.054 680.479 238.13C680.394 238.196 680.276 238.229 680.125 238.229C679.983 238.229 679.771 238.206 679.487 238.158C679.213 238.111 678.944 238.087 678.679 238.087C678.292 238.087 677.947 238.144 677.644 238.258C677.342 238.371 677.068 238.536 676.822 238.754C676.586 238.962 676.373 239.217 676.184 239.519C676.005 239.821 675.835 240.166 675.674 240.554V249.512H672.173V234.969H674.228C674.587 234.969 674.838 235.035 674.979 235.167C675.121 235.29 675.216 235.517 675.263 235.848L675.476 237.492ZM686.377 234.969V249.512H682.862V234.969H686.377ZM686.859 230.731C686.859 231.033 686.798 231.316 686.675 231.581C686.552 231.846 686.387 232.077 686.179 232.276C685.981 232.474 685.744 232.635 685.47 232.758C685.196 232.871 684.903 232.928 684.591 232.928C684.289 232.928 684.001 232.871 683.727 232.758C683.462 232.635 683.231 232.474 683.032 232.276C682.834 232.077 682.673 231.846 682.55 231.581C682.437 231.316 682.38 231.033 682.38 230.731C682.38 230.419 682.437 230.126 682.55 229.852C682.673 229.578 682.834 229.341 683.032 229.143C683.231 228.945 683.462 228.789 683.727 228.675C684.001 228.552 684.289 228.491 684.591 228.491C684.903 228.491 685.196 228.552 685.47 228.675C685.744 228.789 685.981 228.945 686.179 229.143C686.387 229.341 686.552 229.578 686.675 229.852C686.798 230.126 686.859 230.419 686.859 230.731ZM694.795 249.739C693.528 249.739 692.555 249.385 691.875 248.676C691.204 247.958 690.868 246.97 690.868 245.714V237.591H689.38C689.191 237.591 689.03 237.53 688.898 237.407C688.766 237.284 688.7 237.1 688.7 236.854V235.465L691.038 235.082L691.776 231.113C691.823 230.924 691.913 230.778 692.045 230.674C692.177 230.57 692.347 230.518 692.555 230.518H694.37V235.096H698.253V237.591H694.37V245.473C694.37 245.926 694.478 246.281 694.696 246.536C694.922 246.791 695.229 246.918 695.617 246.918C695.834 246.918 696.014 246.895 696.156 246.848C696.307 246.791 696.434 246.734 696.538 246.677C696.652 246.621 696.751 246.569 696.836 246.522C696.921 246.465 697.006 246.436 697.091 246.436C697.195 246.436 697.28 246.465 697.346 246.522C697.412 246.569 697.483 246.644 697.559 246.748L698.608 248.449C698.098 248.875 697.512 249.196 696.85 249.413C696.189 249.631 695.504 249.739 694.795 249.739ZM708.178 243.304C707.167 243.351 706.316 243.441 705.626 243.573C704.937 243.696 704.384 243.857 703.968 244.055C703.552 244.254 703.255 244.485 703.075 244.75C702.895 245.014 702.806 245.302 702.806 245.614C702.806 246.229 702.985 246.668 703.344 246.933C703.713 247.197 704.19 247.33 704.776 247.33C705.494 247.33 706.113 247.202 706.633 246.947C707.162 246.682 707.677 246.285 708.178 245.756V243.304ZM700.155 236.996C701.828 235.465 703.84 234.7 706.193 234.7C707.044 234.7 707.805 234.841 708.476 235.125C709.147 235.399 709.714 235.786 710.177 236.287C710.64 236.779 710.989 237.369 711.226 238.059C711.471 238.749 711.594 239.505 711.594 240.327V249.512H710.007C709.676 249.512 709.421 249.465 709.241 249.371C709.062 249.267 708.92 249.064 708.816 248.761L708.504 247.712C708.135 248.043 707.776 248.336 707.427 248.591C707.077 248.837 706.713 249.045 706.335 249.215C705.957 249.385 705.551 249.512 705.116 249.598C704.691 249.692 704.218 249.739 703.699 249.739C703.084 249.739 702.517 249.659 701.998 249.498C701.478 249.328 701.029 249.078 700.651 248.747C700.273 248.416 699.98 248.005 699.772 247.514C699.564 247.022 699.46 246.451 699.46 245.799C699.46 245.43 699.522 245.066 699.645 244.707C699.767 244.339 699.966 243.989 700.24 243.658C700.523 243.327 700.887 243.016 701.331 242.723C701.776 242.43 702.319 242.175 702.962 241.957C703.614 241.74 704.37 241.565 705.23 241.433C706.09 241.291 707.072 241.206 708.178 241.178V240.327C708.178 239.354 707.97 238.636 707.554 238.172C707.138 237.7 706.538 237.464 705.754 237.464C705.187 237.464 704.715 237.53 704.337 237.662C703.968 237.794 703.642 237.946 703.358 238.116C703.075 238.276 702.815 238.423 702.579 238.555C702.352 238.687 702.097 238.754 701.813 238.754C701.568 238.754 701.36 238.692 701.19 238.569C701.02 238.437 700.883 238.286 700.779 238.116L700.155 236.996ZM730.659 237.804C730.564 237.955 730.465 238.064 730.361 238.13C730.257 238.187 730.125 238.215 729.964 238.215C729.794 238.215 729.61 238.168 729.411 238.073C729.222 237.979 729 237.875 728.745 237.761C728.49 237.639 728.197 237.53 727.866 237.435C727.545 237.341 727.162 237.294 726.718 237.294C726.028 237.294 725.485 237.44 725.088 237.733C724.701 238.026 724.507 238.409 724.507 238.881C724.507 239.193 724.606 239.458 724.805 239.675C725.012 239.883 725.282 240.067 725.613 240.228C725.953 240.388 726.335 240.535 726.761 240.667C727.186 240.79 727.616 240.927 728.051 241.078C728.495 241.23 728.93 241.404 729.355 241.603C729.78 241.792 730.158 242.038 730.489 242.34C730.829 242.633 731.098 242.987 731.297 243.403C731.505 243.819 731.609 244.32 731.609 244.906C731.609 245.605 731.481 246.252 731.226 246.848C730.98 247.433 730.612 247.944 730.12 248.378C729.629 248.804 729.019 249.139 728.292 249.385C727.573 249.621 726.742 249.739 725.797 249.739C725.296 249.739 724.805 249.692 724.323 249.598C723.85 249.512 723.392 249.39 722.948 249.229C722.513 249.068 722.107 248.879 721.729 248.662C721.36 248.445 721.034 248.208 720.751 247.953L721.559 246.621C721.662 246.46 721.785 246.337 721.927 246.252C722.069 246.167 722.248 246.125 722.466 246.125C722.683 246.125 722.886 246.186 723.075 246.309C723.274 246.432 723.5 246.564 723.756 246.706C724.011 246.848 724.308 246.98 724.649 247.103C724.998 247.226 725.438 247.287 725.967 247.287C726.383 247.287 726.737 247.24 727.03 247.145C727.332 247.041 727.578 246.909 727.767 246.748C727.966 246.588 728.107 246.403 728.192 246.196C728.287 245.978 728.334 245.756 728.334 245.529C728.334 245.189 728.23 244.91 728.022 244.693C727.824 244.476 727.555 244.287 727.214 244.126C726.884 243.965 726.501 243.824 726.066 243.701C725.641 243.568 725.201 243.427 724.748 243.275C724.304 243.124 723.864 242.949 723.43 242.751C723.004 242.543 722.622 242.283 722.281 241.971C721.951 241.66 721.681 241.277 721.473 240.823C721.275 240.37 721.176 239.821 721.176 239.179C721.176 238.584 721.294 238.017 721.53 237.478C721.766 236.939 722.111 236.471 722.565 236.075C723.028 235.668 723.6 235.347 724.28 235.111C724.97 234.865 725.764 234.742 726.662 234.742C727.663 234.742 728.575 234.907 729.397 235.238C730.219 235.569 730.905 236.004 731.453 236.542L730.659 237.804ZM743.613 240.568C743.613 240.114 743.547 239.689 743.415 239.292C743.292 238.886 743.103 238.532 742.848 238.229C742.593 237.927 742.267 237.691 741.87 237.52C741.483 237.341 741.029 237.251 740.509 237.251C739.498 237.251 738.699 237.539 738.114 238.116C737.537 238.692 737.169 239.51 737.008 240.568H743.613ZM736.937 242.68C736.994 243.427 737.126 244.074 737.334 244.622C737.542 245.161 737.816 245.61 738.156 245.969C738.496 246.318 738.898 246.583 739.361 246.763C739.833 246.933 740.353 247.018 740.92 247.018C741.487 247.018 741.974 246.952 742.38 246.819C742.796 246.687 743.155 246.54 743.458 246.38C743.769 246.219 744.039 246.073 744.266 245.94C744.502 245.808 744.729 245.742 744.946 245.742C745.239 245.742 745.456 245.851 745.598 246.068L746.604 247.344C746.217 247.797 745.782 248.18 745.3 248.492C744.818 248.794 744.313 249.04 743.784 249.229C743.264 249.409 742.73 249.536 742.182 249.612C741.643 249.687 741.119 249.725 740.608 249.725C739.597 249.725 738.657 249.56 737.788 249.229C736.918 248.889 736.162 248.393 735.52 247.741C734.877 247.079 734.371 246.266 734.003 245.302C733.634 244.329 733.45 243.205 733.45 241.929C733.45 240.937 733.611 240.006 733.932 239.136C734.253 238.258 734.712 237.497 735.307 236.854C735.912 236.202 736.644 235.687 737.504 235.309C738.373 234.931 739.352 234.742 740.438 234.742C741.355 234.742 742.201 234.889 742.976 235.182C743.751 235.474 744.417 235.904 744.974 236.471C745.532 237.029 745.967 237.719 746.278 238.541C746.6 239.354 746.76 240.285 746.76 241.333C746.76 241.863 746.704 242.222 746.59 242.411C746.477 242.59 746.259 242.68 745.938 242.68H736.937ZM752.691 237.492C753.144 236.623 753.683 235.942 754.307 235.451C754.93 234.95 755.667 234.7 756.518 234.7C757.189 234.7 757.727 234.846 758.134 235.139L757.907 237.761C757.86 237.931 757.789 238.054 757.694 238.13C757.609 238.196 757.491 238.229 757.34 238.229C757.198 238.229 756.986 238.206 756.702 238.158C756.428 238.111 756.159 238.087 755.894 238.087C755.507 238.087 755.162 238.144 754.859 238.258C754.557 238.371 754.283 238.536 754.037 238.754C753.801 238.962 753.588 239.217 753.399 239.519C753.22 239.821 753.05 240.166 752.889 240.554V249.512H749.388V234.969H751.443C751.802 234.969 752.053 235.035 752.194 235.167C752.336 235.29 752.431 235.517 752.478 235.848L752.691 237.492ZM772.494 234.969V249.512H770.354C769.891 249.512 769.598 249.3 769.475 248.875L769.234 247.712C768.639 248.317 767.982 248.808 767.264 249.186C766.546 249.555 765.7 249.739 764.726 249.739C763.933 249.739 763.229 249.607 762.614 249.342C762.01 249.068 761.499 248.686 761.084 248.194C760.668 247.703 760.351 247.122 760.134 246.451C759.926 245.77 759.822 245.024 759.822 244.211V234.969H763.323V244.211C763.323 245.099 763.526 245.789 763.933 246.281C764.348 246.763 764.967 247.003 765.79 247.003C766.394 247.003 766.961 246.871 767.491 246.607C768.02 246.333 768.521 245.959 768.993 245.487V234.969H772.494ZM791.988 238.683C791.591 238.201 791.157 237.861 790.684 237.662C790.221 237.464 789.72 237.364 789.182 237.364C788.652 237.364 788.175 237.464 787.75 237.662C787.325 237.861 786.961 238.163 786.659 238.569C786.356 238.966 786.125 239.477 785.964 240.1C785.803 240.715 785.723 241.442 785.723 242.283C785.723 243.134 785.789 243.857 785.921 244.452C786.063 245.038 786.262 245.52 786.517 245.898C786.772 246.266 787.084 246.536 787.452 246.706C787.821 246.866 788.232 246.947 788.686 246.947C789.413 246.947 790.032 246.796 790.542 246.493C791.053 246.191 791.535 245.761 791.988 245.203V238.683ZM795.49 228.448V249.512H793.349C792.886 249.512 792.593 249.3 792.47 248.875L792.173 247.471C791.587 248.142 790.911 248.686 790.146 249.101C789.39 249.517 788.506 249.725 787.495 249.725C786.701 249.725 785.973 249.56 785.312 249.229C784.65 248.898 784.079 248.421 783.597 247.797C783.124 247.164 782.756 246.385 782.491 245.458C782.236 244.532 782.108 243.474 782.108 242.283C782.108 241.206 782.255 240.204 782.548 239.278C782.841 238.352 783.261 237.549 783.809 236.868C784.357 236.188 785.014 235.659 785.78 235.281C786.545 234.893 787.405 234.7 788.36 234.7C789.172 234.7 789.867 234.827 790.443 235.082C791.02 235.337 791.535 235.682 791.988 236.117V228.448H795.49ZM806.628 243.304C805.617 243.351 804.766 243.441 804.076 243.573C803.386 243.696 802.834 243.857 802.418 244.055C802.002 244.254 801.704 244.485 801.525 244.75C801.345 245.014 801.255 245.302 801.255 245.614C801.255 246.229 801.435 246.668 801.794 246.933C802.163 247.197 802.64 247.33 803.226 247.33C803.944 247.33 804.563 247.202 805.083 246.947C805.612 246.682 806.127 246.285 806.628 245.756V243.304ZM798.605 236.996C800.277 235.465 802.29 234.7 804.643 234.7C805.494 234.7 806.255 234.841 806.925 235.125C807.596 235.399 808.163 235.786 808.626 236.287C809.09 236.779 809.439 237.369 809.675 238.059C809.921 238.749 810.044 239.505 810.044 240.327V249.512H808.456C808.126 249.512 807.87 249.465 807.691 249.371C807.511 249.267 807.37 249.064 807.266 248.761L806.954 247.712C806.585 248.043 806.226 248.336 805.877 248.591C805.527 248.837 805.163 249.045 804.785 249.215C804.407 249.385 804.001 249.512 803.566 249.598C803.141 249.692 802.668 249.739 802.148 249.739C801.534 249.739 800.967 249.659 800.447 249.498C799.928 249.328 799.479 249.078 799.101 248.747C798.723 248.416 798.43 248.005 798.222 247.514C798.014 247.022 797.91 246.451 797.91 245.799C797.91 245.43 797.972 245.066 798.094 244.707C798.217 244.339 798.416 243.989 798.69 243.658C798.973 243.327 799.337 243.016 799.781 242.723C800.225 242.43 800.769 242.175 801.411 241.957C802.063 241.74 802.819 241.565 803.679 241.433C804.539 241.291 805.522 241.206 806.628 241.178V240.327C806.628 239.354 806.42 238.636 806.004 238.172C805.588 237.7 804.988 237.464 804.204 237.464C803.637 237.464 803.164 237.53 802.786 237.662C802.418 237.794 802.092 237.946 801.808 238.116C801.525 238.276 801.265 238.423 801.029 238.555C800.802 238.687 800.547 238.754 800.263 238.754C800.018 238.754 799.81 238.692 799.64 238.569C799.469 238.437 799.332 238.286 799.228 238.116L798.605 236.996ZM816.616 236.755C816.909 236.462 817.216 236.193 817.537 235.947C817.868 235.692 818.213 235.479 818.572 235.309C818.941 235.13 819.333 234.993 819.749 234.898C820.164 234.794 820.618 234.742 821.109 234.742C821.903 234.742 822.607 234.879 823.221 235.153C823.836 235.418 824.346 235.796 824.752 236.287C825.168 236.769 825.48 237.35 825.688 238.031C825.905 238.702 826.014 239.443 826.014 240.256V249.512H822.513V240.256C822.513 239.368 822.309 238.683 821.903 238.201C821.497 237.709 820.878 237.464 820.046 237.464C819.441 237.464 818.874 237.601 818.345 237.875C817.816 238.149 817.315 238.522 816.843 238.995V249.512H813.341V234.969H815.482C815.935 234.969 816.233 235.182 816.375 235.607L816.616 236.755ZM659.902 263.015V283.512H656.543V270.273C656.543 269.744 656.571 269.172 656.628 268.558L650.433 280.196C650.14 280.753 649.691 281.032 649.087 281.032H648.548C647.943 281.032 647.494 280.753 647.201 280.196L640.936 268.515C640.964 268.827 640.988 269.134 641.007 269.437C641.026 269.739 641.035 270.018 641.035 270.273V283.512H637.676V263.015H640.553C640.723 263.015 640.87 263.02 640.993 263.03C641.116 263.039 641.224 263.063 641.319 263.1C641.423 263.138 641.512 263.2 641.588 263.285C641.673 263.37 641.753 263.483 641.829 263.625L647.967 275.007C648.127 275.31 648.274 275.622 648.406 275.943C648.548 276.264 648.685 276.595 648.817 276.935C648.95 276.586 649.087 276.25 649.228 275.929C649.37 275.598 649.521 275.282 649.682 274.979L655.735 263.625C655.81 263.483 655.891 263.37 655.976 263.285C656.061 263.2 656.15 263.138 656.245 263.1C656.349 263.063 656.462 263.039 656.585 263.03C656.708 263.02 656.855 263.015 657.025 263.015H659.902ZM672.849 274.568C672.849 274.114 672.783 273.689 672.651 273.292C672.528 272.886 672.339 272.532 672.084 272.229C671.829 271.927 671.503 271.691 671.106 271.52C670.718 271.341 670.265 271.251 669.745 271.251C668.734 271.251 667.935 271.539 667.349 272.116C666.773 272.692 666.404 273.51 666.244 274.568H672.849ZM666.173 276.68C666.23 277.427 666.362 278.074 666.57 278.622C666.778 279.161 667.052 279.61 667.392 279.969C667.732 280.318 668.134 280.583 668.597 280.763C669.069 280.933 669.589 281.018 670.156 281.018C670.723 281.018 671.21 280.952 671.616 280.819C672.032 280.687 672.391 280.54 672.693 280.38C673.005 280.219 673.274 280.073 673.501 279.94C673.738 279.808 673.964 279.742 674.182 279.742C674.475 279.742 674.692 279.851 674.834 280.068L675.84 281.344C675.453 281.797 675.018 282.18 674.536 282.492C674.054 282.794 673.549 283.04 673.019 283.229C672.5 283.409 671.966 283.536 671.418 283.612C670.879 283.687 670.354 283.725 669.844 283.725C668.833 283.725 667.893 283.56 667.023 283.229C666.154 282.889 665.398 282.393 664.755 281.741C664.113 281.079 663.607 280.266 663.239 279.302C662.87 278.329 662.686 277.205 662.686 275.929C662.686 274.937 662.846 274.006 663.168 273.136C663.489 272.258 663.947 271.497 664.543 270.854C665.147 270.202 665.88 269.687 666.74 269.309C667.609 268.931 668.587 268.742 669.674 268.742C670.591 268.742 671.436 268.889 672.211 269.182C672.986 269.474 673.652 269.904 674.21 270.471C674.768 271.029 675.202 271.719 675.514 272.541C675.835 273.354 675.996 274.285 675.996 275.333C675.996 275.863 675.939 276.222 675.826 276.411C675.713 276.59 675.495 276.68 675.174 276.68H666.173ZM681.898 270.755C682.191 270.462 682.498 270.193 682.819 269.947C683.15 269.692 683.495 269.479 683.854 269.309C684.223 269.13 684.615 268.993 685.031 268.898C685.446 268.794 685.9 268.742 686.391 268.742C687.185 268.742 687.889 268.879 688.504 269.153C689.118 269.418 689.628 269.796 690.034 270.287C690.45 270.769 690.762 271.35 690.97 272.031C691.187 272.702 691.296 273.443 691.296 274.256V283.512H687.795V274.256C687.795 273.368 687.592 272.683 687.185 272.201C686.779 271.709 686.16 271.464 685.328 271.464C684.724 271.464 684.157 271.601 683.627 271.875C683.098 272.149 682.597 272.522 682.125 272.995V283.512H678.624V268.969H680.764C681.218 268.969 681.515 269.182 681.657 269.607L681.898 270.755ZM707.449 268.969L699.525 287.51C699.422 287.756 699.284 287.94 699.114 288.063C698.954 288.195 698.703 288.261 698.363 288.261H695.755L698.477 282.421L692.594 268.969H695.67C695.944 268.969 696.157 269.035 696.308 269.167C696.468 269.3 696.587 269.451 696.662 269.621L699.752 277.162C699.856 277.417 699.941 277.672 700.007 277.928C700.083 278.183 700.154 278.443 700.22 278.707C700.305 278.443 700.39 278.183 700.475 277.928C700.56 277.663 700.655 277.403 700.759 277.148L703.679 269.621C703.754 269.432 703.877 269.276 704.047 269.153C704.227 269.03 704.425 268.969 704.643 268.969H707.449ZM718.115 274.568C718.115 274.114 718.049 273.689 717.917 273.292C717.794 272.886 717.605 272.532 717.35 272.229C717.095 271.927 716.768 271.691 716.372 271.52C715.984 271.341 715.531 271.251 715.011 271.251C714 271.251 713.201 271.539 712.615 272.116C712.039 272.692 711.67 273.51 711.51 274.568H718.115ZM711.439 276.68C711.495 277.427 711.628 278.074 711.836 278.622C712.043 279.161 712.318 279.61 712.658 279.969C712.998 280.318 713.4 280.583 713.863 280.763C714.335 280.933 714.855 281.018 715.422 281.018C715.989 281.018 716.476 280.952 716.882 280.819C717.298 280.687 717.657 280.54 717.959 280.38C718.271 280.219 718.54 280.073 718.767 279.94C719.003 279.808 719.23 279.742 719.448 279.742C719.741 279.742 719.958 279.851 720.1 280.068L721.106 281.344C720.719 281.797 720.284 282.18 719.802 282.492C719.32 282.794 718.814 283.04 718.285 283.229C717.765 283.409 717.232 283.536 716.683 283.612C716.145 283.687 715.62 283.725 715.11 283.725C714.099 283.725 713.159 283.56 712.289 283.229C711.42 282.889 710.664 282.393 710.021 281.741C709.379 281.079 708.873 280.266 708.504 279.302C708.136 278.329 707.952 277.205 707.952 275.929C707.952 274.937 708.112 274.006 708.434 273.136C708.755 272.258 709.213 271.497 709.809 270.854C710.413 270.202 711.146 269.687 712.006 269.309C712.875 268.931 713.853 268.742 714.94 268.742C715.857 268.742 716.702 268.889 717.477 269.182C718.252 269.474 718.918 269.904 719.476 270.471C720.033 271.029 720.468 271.719 720.78 272.541C721.101 273.354 721.262 274.285 721.262 275.333C721.262 275.863 721.205 276.222 721.092 276.411C720.978 276.59 720.761 276.68 720.44 276.68H711.439ZM727.164 270.755C727.457 270.462 727.764 270.193 728.085 269.947C728.416 269.692 728.761 269.479 729.12 269.309C729.489 269.13 729.881 268.993 730.297 268.898C730.712 268.794 731.166 268.742 731.657 268.742C732.451 268.742 733.155 268.879 733.769 269.153C734.384 269.418 734.894 269.796 735.3 270.287C735.716 270.769 736.028 271.35 736.236 272.031C736.453 272.702 736.562 273.443 736.562 274.256V283.512H733.061V274.256C733.061 273.368 732.857 272.683 732.451 272.201C732.045 271.709 731.426 271.464 730.594 271.464C729.989 271.464 729.422 271.601 728.893 271.875C728.364 272.149 727.863 272.522 727.391 272.995V283.512H723.889V268.969H726.03C726.483 268.969 726.781 269.182 726.923 269.607L727.164 270.755ZM747.575 277.304C746.563 277.351 745.713 277.441 745.023 277.573C744.333 277.696 743.78 277.857 743.365 278.055C742.949 278.254 742.651 278.485 742.472 278.75C742.292 279.014 742.202 279.302 742.202 279.614C742.202 280.229 742.382 280.668 742.741 280.933C743.109 281.197 743.587 281.33 744.173 281.33C744.891 281.33 745.51 281.202 746.029 280.947C746.559 280.682 747.074 280.285 747.575 279.756V277.304ZM739.551 270.996C741.224 269.465 743.237 268.7 745.59 268.7C746.441 268.7 747.201 268.841 747.872 269.125C748.543 269.399 749.11 269.786 749.573 270.287C750.036 270.779 750.386 271.369 750.622 272.059C750.868 272.749 750.991 273.505 750.991 274.327V283.512H749.403C749.072 283.512 748.817 283.465 748.638 283.371C748.458 283.267 748.316 283.064 748.212 282.761L747.901 281.712C747.532 282.043 747.173 282.336 746.823 282.591C746.474 282.837 746.11 283.045 745.732 283.215C745.354 283.385 744.947 283.512 744.513 283.598C744.087 283.692 743.615 283.739 743.095 283.739C742.481 283.739 741.914 283.659 741.394 283.498C740.874 283.328 740.426 283.078 740.048 282.747C739.67 282.416 739.377 282.005 739.169 281.514C738.961 281.022 738.857 280.451 738.857 279.799C738.857 279.43 738.918 279.066 739.041 278.707C739.164 278.339 739.362 277.989 739.637 277.658C739.92 277.327 740.284 277.016 740.728 276.723C741.172 276.43 741.716 276.175 742.358 275.957C743.01 275.74 743.766 275.565 744.626 275.433C745.486 275.291 746.469 275.206 747.575 275.178V274.327C747.575 273.354 747.367 272.636 746.951 272.172C746.535 271.7 745.935 271.464 745.151 271.464C744.584 271.464 744.111 271.53 743.733 271.662C743.365 271.794 743.039 271.946 742.755 272.116C742.472 272.276 742.212 272.423 741.975 272.555C741.749 272.687 741.493 272.754 741.21 272.754C740.964 272.754 740.756 272.692 740.586 272.569C740.416 272.437 740.279 272.286 740.175 272.116L739.551 270.996ZM757.563 270.755C757.856 270.462 758.163 270.193 758.484 269.947C758.815 269.692 759.16 269.479 759.519 269.309C759.887 269.13 760.279 268.993 760.695 268.898C761.111 268.794 761.565 268.742 762.056 268.742C762.85 268.742 763.554 268.879 764.168 269.153C764.782 269.418 765.293 269.796 765.699 270.287C766.115 270.769 766.427 271.35 766.635 272.031C766.852 272.702 766.961 273.443 766.961 274.256V283.512H763.459V274.256C763.459 273.368 763.256 272.683 762.85 272.201C762.444 271.709 761.825 271.464 760.993 271.464C760.388 271.464 759.821 271.601 759.292 271.875C758.763 272.149 758.262 272.522 757.789 272.995V283.512H754.288V268.969H756.429C756.882 268.969 757.18 269.182 757.322 269.607L757.563 270.755ZM775.606 275.886C776.041 275.886 776.419 275.83 776.74 275.716C777.061 275.593 777.326 275.428 777.534 275.22C777.751 275.012 777.912 274.762 778.016 274.469C778.129 274.176 778.186 273.855 778.186 273.505C778.186 272.787 777.969 272.22 777.534 271.804C777.109 271.379 776.466 271.166 775.606 271.166C774.746 271.166 774.099 271.379 773.664 271.804C773.239 272.22 773.026 272.787 773.026 273.505C773.026 273.845 773.078 274.162 773.182 274.455C773.295 274.748 773.456 275.003 773.664 275.22C773.881 275.428 774.151 275.593 774.472 275.716C774.803 275.83 775.181 275.886 775.606 275.886ZM779.561 284.165C779.561 283.881 779.476 283.649 779.306 283.47C779.136 283.29 778.904 283.153 778.611 283.059C778.318 282.955 777.973 282.879 777.576 282.832C777.189 282.785 776.773 282.752 776.329 282.733C775.894 282.704 775.441 282.681 774.968 282.662C774.505 282.643 774.051 282.605 773.607 282.549C773.22 282.766 772.903 283.021 772.658 283.314C772.421 283.607 772.303 283.947 772.303 284.335C772.303 284.59 772.365 284.826 772.488 285.043C772.62 285.27 772.823 285.464 773.097 285.625C773.381 285.785 773.744 285.908 774.189 285.993C774.633 286.088 775.176 286.135 775.819 286.135C776.471 286.135 777.033 286.083 777.505 285.979C777.978 285.884 778.365 285.747 778.668 285.568C778.98 285.398 779.206 285.19 779.348 284.944C779.49 284.708 779.561 284.448 779.561 284.165ZM783.048 269.465V270.769C783.048 271.185 782.797 271.44 782.297 271.535L780.993 271.776C781.191 272.276 781.29 272.825 781.29 273.42C781.29 274.138 781.144 274.79 780.851 275.376C780.567 275.952 780.17 276.444 779.66 276.85C779.15 277.257 778.545 277.573 777.846 277.8C777.156 278.017 776.409 278.126 775.606 278.126C775.323 278.126 775.048 278.112 774.784 278.083C774.519 278.055 774.259 278.017 774.004 277.97C773.551 278.244 773.324 278.551 773.324 278.891C773.324 279.184 773.456 279.402 773.721 279.543C773.995 279.676 774.354 279.77 774.798 279.827C775.242 279.884 775.748 279.921 776.315 279.94C776.882 279.95 777.463 279.978 778.058 280.025C778.654 280.073 779.235 280.158 779.802 280.281C780.369 280.394 780.874 280.578 781.319 280.833C781.763 281.089 782.117 281.438 782.382 281.882C782.656 282.317 782.793 282.879 782.793 283.569C782.793 284.212 782.632 284.835 782.311 285.44C781.999 286.045 781.541 286.584 780.936 287.056C780.34 287.529 779.603 287.907 778.725 288.19C777.855 288.483 776.863 288.63 775.748 288.63C774.652 288.63 773.697 288.521 772.884 288.304C772.072 288.096 771.396 287.812 770.857 287.453C770.319 287.103 769.917 286.697 769.653 286.234C769.388 285.771 769.256 285.289 769.256 284.788C769.256 284.108 769.459 283.541 769.865 283.087C770.281 282.624 770.848 282.256 771.566 281.982C771.179 281.783 770.872 281.519 770.645 281.188C770.418 280.857 770.305 280.422 770.305 279.884C770.305 279.666 770.342 279.444 770.418 279.217C770.503 278.981 770.621 278.75 770.772 278.523C770.933 278.296 771.131 278.083 771.368 277.885C771.604 277.677 771.883 277.493 772.204 277.332C771.467 276.935 770.886 276.406 770.46 275.745C770.045 275.083 769.837 274.308 769.837 273.42C769.837 272.702 769.979 272.054 770.262 271.478C770.555 270.892 770.957 270.396 771.467 269.99C771.987 269.574 772.596 269.257 773.295 269.04C774.004 268.822 774.774 268.714 775.606 268.714C776.23 268.714 776.816 268.78 777.364 268.912C777.912 269.035 778.413 269.219 778.866 269.465H783.048ZM788.77 262.448V274.511H789.422C789.658 274.511 789.842 274.483 789.974 274.426C790.116 274.36 790.258 274.233 790.4 274.044L794.014 269.578C794.165 269.38 794.331 269.229 794.51 269.125C794.699 269.021 794.94 268.969 795.233 268.969H798.437L793.915 274.37C793.594 274.795 793.244 275.121 792.866 275.348C793.065 275.489 793.239 275.655 793.391 275.844C793.551 276.033 793.702 276.236 793.844 276.453L798.692 283.512H795.531C795.257 283.512 795.021 283.47 794.822 283.385C794.624 283.29 794.458 283.125 794.326 282.889L790.612 277.375C790.48 277.157 790.343 277.016 790.201 276.949C790.059 276.883 789.847 276.85 789.563 276.85H788.77V283.512H785.268V262.448H788.77ZM808.095 277.304C807.084 277.351 806.233 277.441 805.544 277.573C804.854 277.696 804.301 277.857 803.885 278.055C803.469 278.254 803.172 278.485 802.992 278.75C802.813 279.014 802.723 279.302 802.723 279.614C802.723 280.229 802.902 280.668 803.261 280.933C803.63 281.197 804.107 281.33 804.693 281.33C805.411 281.33 806.03 281.202 806.55 280.947C807.079 280.682 807.594 280.285 808.095 279.756V277.304ZM800.072 270.996C801.745 269.465 803.758 268.7 806.111 268.7C806.961 268.7 807.722 268.841 808.393 269.125C809.064 269.399 809.631 269.786 810.094 270.287C810.557 270.779 810.906 271.369 811.143 272.059C811.388 272.749 811.511 273.505 811.511 274.327V283.512H809.924C809.593 283.512 809.338 283.465 809.158 283.371C808.979 283.267 808.837 283.064 808.733 282.761L808.421 281.712C808.053 282.043 807.693 282.336 807.344 282.591C806.994 282.837 806.63 283.045 806.252 283.215C805.874 283.385 805.468 283.512 805.033 283.598C804.608 283.692 804.136 283.739 803.616 283.739C803.002 283.739 802.435 283.659 801.915 283.498C801.395 283.328 800.946 283.078 800.568 282.747C800.19 282.416 799.897 282.005 799.689 281.514C799.481 281.022 799.377 280.451 799.377 279.799C799.377 279.43 799.439 279.066 799.562 278.707C799.685 278.339 799.883 277.989 800.157 277.658C800.441 277.327 800.804 277.016 801.249 276.723C801.693 276.43 802.236 276.175 802.879 275.957C803.531 275.74 804.287 275.565 805.147 275.433C806.007 275.291 806.989 275.206 808.095 275.178V274.327C808.095 273.354 807.887 272.636 807.471 272.172C807.056 271.7 806.456 271.464 805.671 271.464C805.104 271.464 804.632 271.53 804.254 271.662C803.885 271.794 803.559 271.946 803.276 272.116C802.992 272.276 802.732 272.423 802.496 272.555C802.269 272.687 802.014 272.754 801.731 272.754C801.485 272.754 801.277 272.692 801.107 272.569C800.937 272.437 800.8 272.286 800.696 272.116L800.072 270.996ZM818.083 270.755C818.376 270.462 818.683 270.193 819.005 269.947C819.335 269.692 819.68 269.479 820.039 269.309C820.408 269.13 820.8 268.993 821.216 268.898C821.632 268.794 822.085 268.742 822.577 268.742C823.37 268.742 824.074 268.879 824.689 269.153C825.303 269.418 825.813 269.796 826.22 270.287C826.635 270.769 826.947 271.35 827.155 272.031C827.373 272.702 827.481 273.443 827.481 274.256V283.512H823.98V274.256C823.98 273.368 823.777 272.683 823.37 272.201C822.964 271.709 822.345 271.464 821.514 271.464C820.909 271.464 820.342 271.601 819.813 271.875C819.283 272.149 818.782 272.522 818.31 272.995V283.512H814.809V268.969H816.949C817.403 268.969 817.7 269.182 817.842 269.607L818.083 270.755Z" fill="black"/>
<rect x="605.764" y="0.224976" width="276.133" height="73.9238" rx="35.331" transform="rotate(15 605.764 0.224976)" fill="#3B9D49"/>
<path d="M527.956 51.4125L532.929 78.2387L552.72 59.4588L540.976 84.0847L568.026 80.5245L544.049 93.5437L568.026 106.563L540.976 103.003L552.72 127.629L532.929 108.849L527.956 135.675L522.983 108.849L503.192 127.629L514.937 103.003L487.887 106.563L511.864 93.5437L487.887 80.5245L514.937 84.0847L503.192 59.4588L522.983 78.2387L527.956 51.4125Z" fill="black"/>
<path d="M172.006 108.9L174.47 122.188L184.273 112.886L178.455 125.083L191.854 123.32L179.978 129.769L191.854 136.218L178.455 134.454L184.273 146.652L174.47 137.35L172.006 150.638L169.543 137.35L159.74 146.652L165.558 134.454L152.159 136.218L164.035 129.769L152.159 123.32L165.558 125.083L159.74 112.886L169.543 122.188L172.006 108.9Z" fill="black"/>
<path d="M675.759 47.3683L670.454 67.167L667.209 66.2975L670.635 53.5092C670.772 52.998 670.947 52.4531 671.161 51.8744L662.166 61.5123C661.738 61.975 661.233 62.1281 660.649 61.9716L660.128 61.8322C659.544 61.6757 659.183 61.2902 659.044 60.6758L656.015 47.772C655.962 48.0806 655.905 48.3834 655.845 48.6804C655.785 48.9774 655.722 49.2491 655.656 49.4955L652.229 62.2839L648.984 61.4144L654.289 41.6157L657.069 42.3605C657.233 42.4045 657.374 42.447 657.49 42.4879C657.606 42.5288 657.705 42.5798 657.786 42.6408C657.877 42.7042 657.948 42.7867 657.999 42.8885C658.059 42.9926 658.107 43.1229 658.143 43.2794L661.126 55.8627C661.203 56.1964 661.264 56.5355 661.308 56.8801C661.362 57.2271 661.409 57.5821 661.449 57.9449C661.667 57.6414 661.886 57.3528 662.106 57.0792C662.329 56.7964 662.557 56.5297 662.79 56.2792L671.575 46.8785C671.685 46.7611 671.792 46.6724 671.896 46.6122C672 46.5521 672.103 46.516 672.204 46.504C672.314 46.4943 672.43 46.5009 672.551 46.5235C672.672 46.5462 672.815 46.5796 672.979 46.6236L675.759 47.3683ZM685.274 61.8783C685.392 61.4401 685.438 61.0123 685.413 60.5946C685.399 60.1703 685.309 59.7791 685.14 59.421C684.972 59.0629 684.718 58.7503 684.379 58.4832C684.051 58.2095 683.636 58.0054 683.134 57.8709C682.158 57.6092 681.312 57.6809 680.597 58.0861C679.891 58.4937 679.323 59.1879 678.894 60.1686L685.274 61.8783ZM678.279 62.1904C678.14 62.9262 678.101 63.5857 678.16 64.1689C678.221 64.743 678.37 65.2475 678.605 65.6825C678.843 66.1082 679.163 66.4678 679.564 66.7611C679.976 67.0476 680.456 67.2643 681.004 67.4111C681.551 67.5578 682.039 67.6199 682.465 67.5973C682.901 67.5771 683.286 67.5286 683.62 67.4516C683.962 67.3772 684.26 67.3054 684.514 67.2363C684.776 67.1697 685.012 67.1645 685.222 67.2207C685.505 67.2965 685.687 67.4578 685.768 67.7044L686.41 69.1972C685.918 69.535 685.399 69.7922 684.853 69.9687C684.309 70.136 683.757 70.2425 683.197 70.2881C682.649 70.327 682.1 70.3121 681.551 70.2432C681.011 70.1768 680.495 70.0776 680.002 69.9455C679.025 69.6838 678.16 69.2807 677.405 68.7362C676.654 68.1826 676.052 67.5077 675.6 66.7116C675.15 65.9063 674.872 64.9904 674.766 63.964C674.662 62.9284 674.775 61.7945 675.105 60.5622C675.362 59.6038 675.758 58.7462 676.293 57.9896C676.831 57.2239 677.471 56.6077 678.212 56.1411C678.965 55.6678 679.806 55.3599 680.734 55.2173C681.672 55.0772 682.666 55.1478 683.715 55.4291C684.601 55.6663 685.38 56.0267 686.052 56.5102C686.725 56.9938 687.257 57.5815 687.649 58.2735C688.043 58.9563 688.285 59.7352 688.373 60.61C688.473 61.4782 688.387 62.4189 688.116 63.4321C687.979 63.9433 687.831 64.2755 687.673 64.4287C687.517 64.5728 687.284 64.6032 686.973 64.5201L678.279 62.1904ZM695.002 60.5371C695.361 60.33 695.727 60.1493 696.101 59.9951C696.486 59.8343 696.875 59.7182 697.265 59.6468C697.668 59.5688 698.082 59.5379 698.508 59.5543C698.937 59.5615 699.388 59.6287 699.863 59.7559C700.63 59.9613 701.274 60.2759 701.797 60.6996C702.322 61.1141 702.717 61.6113 702.982 62.1912C703.259 62.7643 703.41 63.4064 703.434 64.1174C703.471 64.8217 703.384 65.5664 703.173 66.3514L700.778 75.2923L697.396 74.3861L699.791 65.4452C700.021 64.5872 700.002 63.8728 699.735 63.3021C699.469 62.7223 698.935 62.3248 698.132 62.1096C697.548 61.953 696.964 61.9386 696.382 62.0664C695.8 62.1941 695.22 62.425 694.641 62.7592L691.919 72.9186L688.537 72.0124L692.301 57.9644L694.369 58.5184C694.807 58.6358 695.039 58.9182 695.066 59.3657L695.002 60.5371ZM719.862 65.3493L716.098 79.3973L714.03 78.8433C713.583 78.7235 713.355 78.4423 713.346 77.9997L713.415 76.8146C712.683 77.2447 711.921 77.5494 711.13 77.7286C710.341 77.8987 709.476 77.8578 708.536 77.6059C707.769 77.4004 707.123 77.0904 706.598 76.6759C706.085 76.2546 705.691 75.7529 705.417 75.1706C705.142 74.5883 704.987 73.945 704.951 73.2407C704.926 72.5296 705.019 71.7816 705.229 70.9966L707.621 62.0694L711.003 62.9756L708.611 71.9028C708.381 72.7608 708.399 73.4798 708.664 74.0596C708.941 74.6327 709.477 75.0257 710.271 75.2385C710.855 75.395 711.437 75.414 712.017 75.2954C712.599 75.1676 713.179 74.9367 713.758 74.6026L716.48 64.4431L719.862 65.3493ZM728.326 60.8667L722.874 81.213L719.492 80.3068L724.944 59.9605L728.326 60.8667ZM733.513 69.0071L729.749 83.0551L726.353 82.1452L730.117 68.0972L733.513 69.0071ZM735.075 65.0379C734.997 65.33 734.864 65.5879 734.677 65.8117C734.49 66.0355 734.27 66.2163 734.018 66.3542C733.775 66.4945 733.505 66.5886 733.209 66.6363C732.915 66.6749 732.617 66.6539 732.316 66.5732C732.024 66.4949 731.76 66.3655 731.525 66.1851C731.301 65.9979 731.119 65.7828 730.979 65.5398C730.838 65.2967 730.743 65.0315 730.693 64.7441C730.652 64.4592 730.67 64.1707 730.749 63.8786C730.829 63.5773 730.96 63.3091 731.14 63.0737C731.33 62.8408 731.546 62.6542 731.789 62.5138C732.032 62.3735 732.296 62.2828 732.581 62.2418C732.878 62.194 733.172 62.2093 733.464 62.2876C733.765 62.3683 734.033 62.5034 734.265 62.693C734.501 62.8735 734.689 63.0852 734.829 63.3283C734.978 63.5738 735.077 63.8448 735.125 64.1413C735.172 64.4378 735.156 64.7367 735.075 65.0379ZM744.798 74.966C744.668 75.0875 744.544 75.1668 744.426 75.2038C744.311 75.2317 744.176 75.2248 744.021 75.1832C743.856 75.1392 743.691 75.0459 743.523 74.9032C743.365 74.7631 743.178 74.6052 742.961 74.4296C742.746 74.2449 742.491 74.0641 742.196 73.8872C741.91 73.7128 741.553 73.5681 741.124 73.4531C740.457 73.2746 739.895 73.2754 739.435 73.4557C738.985 73.6384 738.699 73.9579 738.577 74.4143C738.496 74.7155 738.524 74.9968 738.659 75.2581C738.806 75.5127 739.018 75.7604 739.296 76.0012C739.583 76.2444 739.915 76.485 740.292 76.7228C740.671 76.9516 741.05 77.1952 741.431 77.4538C741.821 77.7148 742.196 77.9961 742.555 78.2979C742.917 78.5905 743.219 78.9257 743.46 79.3034C743.713 79.6744 743.881 80.0864 743.965 80.5394C744.058 80.9948 744.029 81.5055 743.877 82.0714C743.696 82.7469 743.406 83.3392 743.005 83.8482C742.616 84.3505 742.128 84.7481 741.541 85.0408C740.956 85.3243 740.281 85.4906 739.514 85.5396C738.759 85.5819 737.925 85.4808 737.013 85.2362C736.529 85.1066 736.066 84.9338 735.625 84.7178C735.191 84.5133 734.78 84.276 734.393 84.0059C734.014 83.7382 733.671 83.4505 733.362 83.1427C733.062 82.8374 732.808 82.5248 732.601 82.205L733.726 81.127C733.868 80.9988 734.018 80.9119 734.177 80.8664C734.336 80.821 734.521 80.8264 734.731 80.8826C734.94 80.9389 735.121 81.0508 735.272 81.2184C735.431 81.3884 735.616 81.5749 735.826 81.7778C736.036 81.9808 736.289 82.1856 736.586 82.3923C736.892 82.6015 737.3 82.7746 737.812 82.9115C738.213 83.0192 738.568 83.0652 738.875 83.0498C739.194 83.0276 739.466 82.9634 739.69 82.8572C739.923 82.7534 740.108 82.6121 740.244 82.4332C740.391 82.2478 740.494 82.0455 740.553 81.8264C740.641 81.4978 740.613 81.2016 740.468 80.9379C740.333 80.6766 740.122 80.4243 739.835 80.1811C739.557 79.9403 739.224 79.7043 738.836 79.4731C738.459 79.2353 738.071 78.9846 737.672 78.7212C737.282 78.4602 736.903 78.1776 736.535 77.8734C736.178 77.5625 735.875 77.2124 735.627 76.8232C735.389 76.4363 735.228 75.9969 735.144 75.505C735.07 75.0155 735.116 74.4604 735.282 73.8397C735.436 73.2646 735.697 72.7475 736.065 72.2884C736.432 71.8292 736.887 71.4666 737.428 71.2007C737.98 70.928 738.615 70.7656 739.334 70.7135C740.064 70.6547 740.862 70.7415 741.729 70.9739C742.697 71.2331 743.535 71.6289 744.244 72.1612C744.952 72.6934 745.501 73.2907 745.891 73.9528L744.798 74.966ZM760.601 88.2402C761.286 88.4236 761.883 88.4955 762.392 88.456C762.902 88.4164 763.33 88.2964 763.677 88.0959C764.034 87.8979 764.32 87.6322 764.537 87.2989C764.762 86.968 764.93 86.5972 765.04 86.1865C765.155 85.7574 765.189 85.3557 765.143 84.9813C765.099 84.5978 764.963 84.2482 764.734 83.9326C764.508 83.6079 764.18 83.3192 763.748 83.0667C763.326 82.8166 762.791 82.6048 762.143 82.4311L758.432 81.4369L756.877 87.2423L760.601 88.2402ZM760.648 73.1669L759.115 78.8902L762.045 79.6753C763.305 80.0128 764.315 80.039 765.076 79.7538C765.847 79.471 766.365 78.8322 766.632 77.8372C766.908 76.8058 766.813 75.9927 766.346 75.398C765.879 74.8033 765.025 74.3397 763.784 74.007L760.648 73.1669ZM764.547 71.1591C765.843 71.5064 766.919 71.9268 767.775 72.4203C768.631 72.9138 769.29 73.467 769.752 74.0799C770.223 74.6953 770.508 75.3637 770.608 76.0852C770.709 76.8067 770.65 77.5736 770.432 78.386C770.308 78.8515 770.119 79.2804 769.867 79.6728C769.618 80.056 769.297 80.3956 768.905 80.6915C768.524 80.9808 768.069 81.2162 767.541 81.3975C767.023 81.5814 766.429 81.6963 765.761 81.7424C768.318 83.0828 769.284 84.9169 768.66 87.2445C768.435 88.0843 768.068 88.8174 767.557 89.4437C767.047 90.0701 766.417 90.5615 765.666 90.9179C764.917 91.2652 764.056 91.4651 763.083 91.5175C762.111 91.5699 761.049 91.442 759.899 91.1338L752.423 89.1307L757.728 69.3321L764.547 71.1591ZM778.548 74.3236L773.096 94.6699L769.714 93.7637L775.166 73.4174L778.548 74.3236ZM786.504 82.9713C787.545 83.2501 788.444 83.6721 789.203 84.2373C789.97 84.805 790.572 85.4799 791.008 86.262C791.454 87.0466 791.721 87.9302 791.81 88.9128C791.899 89.8954 791.795 90.9389 791.499 92.0434C791.201 93.157 790.767 94.1171 790.199 94.9235C789.631 95.73 788.956 96.3663 788.176 96.8322C787.405 97.3006 786.545 97.5887 785.596 97.6966C784.657 97.8068 783.667 97.7226 782.626 97.4437C781.577 97.1625 780.668 96.738 779.901 96.1704C779.133 95.6027 778.528 94.9221 778.085 94.1283C777.651 93.3371 777.385 92.4489 777.287 91.4639C777.199 90.4813 777.303 89.4332 777.602 88.3196C777.898 87.2151 778.33 86.2596 778.898 85.4531C779.475 84.6491 780.149 84.0174 780.917 83.5581C781.695 83.1013 782.558 82.819 783.507 82.7111C784.455 82.6033 785.455 82.69 786.504 82.9713ZM783.324 94.8423C784.492 95.1553 785.46 94.994 786.227 94.3582C787.003 93.7248 787.594 92.6505 788 91.1352C788.406 89.62 788.433 88.3895 788.08 87.4437C787.736 86.5004 786.979 85.8722 785.811 85.5591C784.624 85.2411 783.636 85.4067 782.846 86.0559C782.067 86.6984 781.476 87.7727 781.072 89.2788C780.669 90.785 780.643 92.0109 780.996 92.9567C781.361 93.8958 782.137 94.5243 783.324 94.8423ZM799.191 93.7669C799.611 93.8794 799.991 93.9225 800.33 93.8961C800.673 93.8606 800.971 93.7694 801.226 93.6223C801.489 93.4778 801.709 93.2775 801.886 93.0214C802.071 92.7678 802.209 92.4721 802.299 92.1344C802.485 91.4407 802.422 90.8367 802.11 90.3226C801.809 89.8018 801.243 89.4301 800.413 89.2075C799.582 88.9849 798.902 89.0228 798.372 89.321C797.853 89.6126 797.501 90.1052 797.315 90.7989C797.227 91.1276 797.196 91.4468 797.22 91.7567C797.254 92.069 797.343 92.357 797.488 92.6208C797.644 92.8778 797.861 93.1073 798.14 93.3091C798.43 93.5043 798.78 93.6569 799.191 93.7669ZM800.869 102.787C800.942 102.513 800.92 102.267 800.802 102.05C800.684 101.832 800.496 101.64 800.237 101.473C799.981 101.297 799.668 101.134 799.297 100.986C798.935 100.84 798.541 100.7 798.117 100.567C797.705 100.427 797.273 100.287 796.821 100.147C796.379 100.008 795.95 99.8546 795.536 99.6849C795.106 99.7945 794.734 99.959 794.421 100.178C794.117 100.4 793.915 100.698 793.814 101.073C793.748 101.319 793.746 101.563 793.809 101.805C793.878 102.058 794.024 102.298 794.247 102.524C794.479 102.753 794.799 102.965 795.206 103.162C795.611 103.369 796.123 103.555 796.744 103.721C797.374 103.89 797.93 103.985 798.414 104.007C798.894 104.038 799.304 104.006 799.643 103.911C799.988 103.827 800.261 103.685 800.461 103.485C800.659 103.293 800.795 103.06 800.869 102.787ZM808.041 89.4905L807.704 90.7502C807.596 91.1518 807.288 91.3335 806.78 91.2951L805.458 91.1904C805.52 91.7255 805.474 92.2806 805.32 92.8557C805.134 93.5494 804.824 94.1413 804.389 94.6314C803.966 95.1149 803.456 95.4868 802.857 95.7472C802.259 96.0077 801.593 96.1569 800.859 96.195C800.137 96.2264 799.387 96.1382 798.611 95.9303C798.338 95.8569 798.076 95.7723 797.828 95.6764C797.58 95.5805 797.339 95.4768 797.105 95.3651C796.595 95.5124 796.297 95.7503 796.209 96.079C796.133 96.3619 796.205 96.6061 796.423 96.8115C796.654 97.0102 796.976 97.1945 797.391 97.3642C797.805 97.5339 798.284 97.7013 798.826 97.8663C799.372 98.0221 799.926 98.2 800.488 98.3997C801.051 98.5994 801.591 98.832 802.107 99.0974C802.625 99.3537 803.066 99.6625 803.429 100.024C803.792 100.385 804.043 100.815 804.184 101.312C804.336 101.803 804.323 102.382 804.144 103.048C803.978 103.669 803.662 104.23 803.195 104.731C802.737 105.234 802.155 105.636 801.448 105.936C800.751 106.238 799.941 106.412 799.019 106.459C798.103 106.517 797.107 106.401 796.03 106.113C794.971 105.829 794.077 105.477 793.348 105.057C792.617 104.646 792.038 104.197 791.611 103.711C791.181 103.233 790.898 102.737 790.762 102.221C790.626 101.705 790.623 101.206 790.753 100.722C790.929 100.065 791.272 99.5696 791.782 99.2366C792.304 98.897 792.947 98.6877 793.711 98.6089C793.388 98.3169 793.16 97.9818 793.027 97.6037C792.893 97.2255 792.896 96.7762 793.036 96.2559C793.092 96.046 793.186 95.8413 793.318 95.6418C793.461 95.4356 793.635 95.2425 793.84 95.0626C794.054 94.8851 794.3 94.7311 794.58 94.6005C794.862 94.4609 795.179 94.355 795.531 94.283C794.921 93.7088 794.497 93.0473 794.258 92.2982C794.027 91.5517 794.027 90.7494 794.257 89.8913C794.443 89.1976 794.747 88.609 795.17 88.1256C795.605 87.6355 796.121 87.2602 796.719 86.9998C797.329 86.7327 798 86.5846 798.731 86.5557C799.472 86.5292 800.244 86.6235 801.047 86.8388C801.65 87.0002 802.199 87.2157 802.694 87.4854C803.192 87.7459 803.628 88.0535 804.002 88.4083L808.041 89.4905Z" fill="black"/>
<g clip-path="url(#clip0_68_604)">
<path d="M413.88 176.252C417.319 176.94 419.555 180.286 418.867 183.725L418.563 185.233C417.862 188.765 416.565 192.125 414.753 195.181H433.801C437.306 195.181 440.15 198.024 440.15 201.53C440.15 203.977 438.761 206.106 436.724 207.165C438.166 208.329 439.092 210.114 439.092 212.112C439.092 215.207 436.869 217.786 433.946 218.342C434.528 219.308 434.859 220.432 434.859 221.636C434.859 224.453 433.02 226.847 430.481 227.667C430.573 228.104 430.626 228.567 430.626 229.043C430.626 232.548 427.782 235.392 424.277 235.392H411.38C408.867 235.392 406.42 234.651 404.33 233.263L399.237 229.863C395.705 227.509 393.589 223.54 393.589 219.294V214.228V207.879V204.585C393.589 200.723 395.348 197.085 398.351 194.665L399.33 193.884C402.835 191.08 405.229 187.138 406.102 182.747L406.406 181.239C407.094 177.8 410.441 175.564 413.88 176.252ZM376.658 197.297H385.123C387.465 197.297 389.356 199.188 389.356 201.53V231.159C389.356 233.501 387.465 235.392 385.123 235.392H376.658C374.316 235.392 372.425 233.501 372.425 231.159V201.53C372.425 199.188 374.316 197.297 376.658 197.297Z" fill="black"/>
</g>
<defs>
<clipPath id="clip0_68_604">
<rect width="67.725" height="67.725" fill="white" transform="translate(372.425 171.9)"/>
</clipPath>
</defs>
</svg>
