<svg width="114" height="39" viewBox="0 0 114 39" fill="none" xmlns="http://www.w3.org/2000/svg">
<path d="M108 13.5L109.146 18.3545L114 19.5L109.146 20.6455L108 25.5L106.854 20.6455L102 19.5L106.854 18.3545L108 13.5Z" fill="black"/>
<path d="M16.208 27.596V31.5H2.432V8.284H7.232V27.596H16.208ZM31.4068 22.684L28.8948 15.58C28.7454 15.2067 28.5854 14.7693 28.4148 14.268C28.2548 13.7667 28.1001 13.2227 27.9508 12.636C27.8014 13.2333 27.6414 13.788 27.4708 14.3C27.3108 14.8013 27.1561 15.2387 27.0068 15.612L24.5108 22.684H31.4068ZM39.4708 31.5H35.7428C35.3268 31.5 34.9854 31.404 34.7188 31.212C34.4628 31.0093 34.2708 30.7533 34.1428 30.444L32.5748 26.012H23.3268L21.7588 30.444C21.6521 30.7107 21.4654 30.956 21.1988 31.18C20.9321 31.3933 20.5961 31.5 20.1908 31.5H16.4307L25.5028 8.284H30.4148L39.4708 31.5ZM48.8835 19.276C49.6622 19.276 50.3342 19.18 50.8995 18.988C51.4648 18.7853 51.9288 18.5133 52.2915 18.172C52.6542 17.82 52.9208 17.4093 53.0915 16.94C53.2622 16.4707 53.3475 15.9587 53.3475 15.404C53.3475 14.3053 52.9795 13.452 52.2435 12.844C51.5182 12.236 50.4088 11.932 48.9155 11.932H46.4195V19.276H48.8835ZM60.1315 31.5H55.7955C54.9848 31.5 54.3982 31.1907 54.0355 30.572L49.6195 23.452C49.4382 23.1747 49.2355 22.972 49.0115 22.844C48.7982 22.716 48.4782 22.652 48.0515 22.652H46.4195V31.5H41.6195V8.284H48.9155C50.5368 8.284 51.9235 8.45467 53.0755 8.796C54.2275 9.12667 55.1715 9.59067 55.9075 10.188C56.6435 10.7853 57.1822 11.5 57.5235 12.332C57.8648 13.1533 58.0355 14.06 58.0355 15.052C58.0355 15.82 57.9235 16.5507 57.6995 17.244C57.4862 17.9267 57.1715 18.5507 56.7555 19.116C56.3395 19.6813 55.8275 20.1827 55.2195 20.62C54.6115 21.0573 53.9182 21.4093 53.1395 21.676C53.4488 21.8467 53.7368 22.0547 54.0035 22.3C54.2702 22.5347 54.5102 22.8173 54.7235 23.148L60.1315 31.5ZM73.3218 19.676H81.2898V29.26C80.1058 30.124 78.8418 30.7587 77.4978 31.164C76.1644 31.5587 74.7511 31.756 73.2578 31.756C71.3484 31.756 69.6204 31.4627 68.0738 30.876C66.5271 30.2787 65.2044 29.452 64.1058 28.396C63.0071 27.34 62.1591 26.0867 61.5618 24.636C60.9644 23.1853 60.6658 21.6013 60.6658 19.884C60.6658 18.1453 60.9484 16.5507 61.5138 15.1C62.0898 13.6493 62.9058 12.4013 63.9618 11.356C65.0178 10.3107 66.2924 9.49467 67.7858 8.908C69.2898 8.32133 70.9698 8.028 72.8258 8.028C73.7858 8.028 74.6818 8.108 75.5138 8.268C76.3458 8.41733 77.1138 8.63067 77.8178 8.908C78.5218 9.17467 79.1671 9.49467 79.7538 9.868C80.3404 10.2413 80.8738 10.652 81.3538 11.1L79.9618 13.244C79.7484 13.5853 79.4711 13.7933 79.1298 13.868C78.7884 13.9427 78.4151 13.8573 78.0098 13.612C77.6258 13.3773 77.2471 13.1693 76.8738 12.988C76.5111 12.796 76.1218 12.6307 75.7058 12.492C75.2898 12.3533 74.8364 12.2467 74.3458 12.172C73.8551 12.0973 73.2898 12.06 72.6498 12.06C71.5724 12.06 70.5964 12.2467 69.7218 12.62C68.8471 12.9933 68.1004 13.5213 67.4818 14.204C66.8738 14.8867 66.4044 15.708 66.0738 16.668C65.7431 17.628 65.5778 18.7 65.5778 19.884C65.5778 21.164 65.7591 22.3107 66.1218 23.324C66.4844 24.3267 66.9964 25.1747 67.6578 25.868C68.3191 26.5613 69.1084 27.0893 70.0258 27.452C70.9538 27.8147 71.9831 27.996 73.1138 27.996C73.8818 27.996 74.5644 27.9213 75.1618 27.772C75.7698 27.612 76.3618 27.3987 76.9378 27.132V23.228H74.3138C74.0044 23.228 73.7591 23.148 73.5778 22.988C73.4071 22.8173 73.3218 22.604 73.3218 22.348V19.676ZM90.0453 12.044V18.012H97.7893V21.644H90.0453V27.74H99.9973V31.5H85.2133V8.284H99.9973V12.044H90.0453Z" fill="black"/>
</svg>
