<svg width="323" height="323" viewBox="0 0 323 323" fill="none" xmlns="http://www.w3.org/2000/svg">
<circle cx="161.24" cy="161.332" r="154.901" fill="#F3EEE8" stroke="#707070" stroke-width="12.3673"/>
<path d="M243.38 284.078V263.466C243.38 252.532 239.037 242.047 231.306 234.316C223.574 226.584 213.089 222.241 202.155 222.241H119.707C108.773 222.241 98.2876 226.584 90.5565 234.316C82.8255 242.047 78.4822 252.532 78.4822 263.466V284.078" stroke="#707070" stroke-width="12.3673" stroke-linecap="round" stroke-linejoin="round"/>
<path d="M160.931 181.017C183.699 181.017 202.156 162.56 202.156 139.792C202.156 117.025 183.699 98.5679 160.931 98.5679C138.163 98.5679 119.707 117.025 119.707 139.792C119.707 162.56 138.163 181.017 160.931 181.017Z" stroke="#707070" stroke-width="12.3673" stroke-linecap="round" stroke-linejoin="round"/>
</svg>
